<mxfile host="Electron" modified="2023-10-15T22:12:56.333Z" agent="Mozilla/5.0 (Windows NT 10.0; Win64; x64) AppleWebKit/537.36 (KHTML, like Gecko) draw.io/22.0.2 Chrome/114.0.5735.289 Electron/25.8.4 Safari/537.36" etag="MzWqdXenomUkagUfW9Ur" version="22.0.2" type="device">
  <diagram name="Page-1" id="-yXR1lQKCudIqUGkakpB">
    <mxGraphModel dx="2126" dy="1714" grid="1" gridSize="10" guides="1" tooltips="1" connect="1" arrows="1" fold="1" page="1" pageScale="1" pageWidth="850" pageHeight="1100" math="0" shadow="0">
      <root>
        <mxCell id="0" />
        <mxCell id="1" parent="0" />
        <mxCell id="FyyPBsqEvOjFrn_GXzJg-1" value="Sales offices" style="rounded=0;whiteSpace=wrap;html=1;" parent="1" vertex="1">
          <mxGeometry x="30" y="140" width="120" height="60" as="geometry" />
        </mxCell>
        <mxCell id="FyyPBsqEvOjFrn_GXzJg-2" value="O_Num" style="ellipse;whiteSpace=wrap;html=1;" parent="1" vertex="1">
          <mxGeometry x="-80" y="260" width="80" height="60" as="geometry" />
        </mxCell>
        <mxCell id="FyyPBsqEvOjFrn_GXzJg-3" value="" style="endArrow=none;html=1;rounded=0;entryX=0;entryY=1;entryDx=0;entryDy=0;exitX=0.5;exitY=0;exitDx=0;exitDy=0;" parent="1" source="FyyPBsqEvOjFrn_GXzJg-2" target="FyyPBsqEvOjFrn_GXzJg-1" edge="1">
          <mxGeometry width="50" height="50" relative="1" as="geometry">
            <mxPoint x="70" y="280" as="sourcePoint" />
            <mxPoint x="120" y="230" as="targetPoint" />
          </mxGeometry>
        </mxCell>
        <mxCell id="FyyPBsqEvOjFrn_GXzJg-4" value="Location" style="ellipse;whiteSpace=wrap;html=1;" parent="1" vertex="1">
          <mxGeometry x="140" y="280" width="90" height="60" as="geometry" />
        </mxCell>
        <mxCell id="FyyPBsqEvOjFrn_GXzJg-5" value="" style="endArrow=none;html=1;rounded=0;entryX=1;entryY=1;entryDx=0;entryDy=0;" parent="1" target="FyyPBsqEvOjFrn_GXzJg-1" edge="1">
          <mxGeometry width="50" height="50" relative="1" as="geometry">
            <mxPoint x="170" y="280" as="sourcePoint" />
            <mxPoint x="220" y="230" as="targetPoint" />
          </mxGeometry>
        </mxCell>
        <mxCell id="FyyPBsqEvOjFrn_GXzJg-6" value="Employee" style="rounded=0;whiteSpace=wrap;html=1;" parent="1" vertex="1">
          <mxGeometry x="400" y="140" width="120" height="60" as="geometry" />
        </mxCell>
        <mxCell id="FyyPBsqEvOjFrn_GXzJg-7" value="Emp_ID" style="ellipse;whiteSpace=wrap;html=1;" parent="1" vertex="1">
          <mxGeometry x="270" y="280" width="110" height="60" as="geometry" />
        </mxCell>
        <mxCell id="FyyPBsqEvOjFrn_GXzJg-9" value="" style="endArrow=none;html=1;rounded=0;exitX=0.5;exitY=1;exitDx=0;exitDy=0;entryX=0.5;entryY=0;entryDx=0;entryDy=0;" parent="1" source="FyyPBsqEvOjFrn_GXzJg-1" target="FyyPBsqEvOjFrn_GXzJg-49" edge="1">
          <mxGeometry width="50" height="50" relative="1" as="geometry">
            <mxPoint x="15" y="320" as="sourcePoint" />
            <mxPoint x="85" y="320" as="targetPoint" />
          </mxGeometry>
        </mxCell>
        <mxCell id="FyyPBsqEvOjFrn_GXzJg-10" value="" style="endArrow=none;html=1;rounded=0;" parent="1" edge="1">
          <mxGeometry width="50" height="50" relative="1" as="geometry">
            <mxPoint x="290" y="320" as="sourcePoint" />
            <mxPoint x="360" y="320" as="targetPoint" />
          </mxGeometry>
        </mxCell>
        <mxCell id="FyyPBsqEvOjFrn_GXzJg-11" value="Emp_Name" style="ellipse;whiteSpace=wrap;html=1;" parent="1" vertex="1">
          <mxGeometry x="410" y="280" width="110" height="60" as="geometry" />
        </mxCell>
        <mxCell id="FyyPBsqEvOjFrn_GXzJg-12" value="" style="endArrow=none;html=1;rounded=0;exitX=0.5;exitY=0;exitDx=0;exitDy=0;entryX=0;entryY=1;entryDx=0;entryDy=0;" parent="1" source="FyyPBsqEvOjFrn_GXzJg-7" target="FyyPBsqEvOjFrn_GXzJg-6" edge="1">
          <mxGeometry width="50" height="50" relative="1" as="geometry">
            <mxPoint x="320" y="270" as="sourcePoint" />
            <mxPoint x="370" y="220" as="targetPoint" />
          </mxGeometry>
        </mxCell>
        <mxCell id="FyyPBsqEvOjFrn_GXzJg-13" value="" style="endArrow=none;html=1;rounded=0;entryX=0.5;entryY=1;entryDx=0;entryDy=0;exitX=0.5;exitY=0;exitDx=0;exitDy=0;" parent="1" source="FyyPBsqEvOjFrn_GXzJg-11" target="FyyPBsqEvOjFrn_GXzJg-6" edge="1">
          <mxGeometry width="50" height="50" relative="1" as="geometry">
            <mxPoint x="430" y="280" as="sourcePoint" />
            <mxPoint x="480" y="230" as="targetPoint" />
          </mxGeometry>
        </mxCell>
        <mxCell id="FyyPBsqEvOjFrn_GXzJg-14" value="assign" style="rhombus;whiteSpace=wrap;html=1;" parent="1" vertex="1">
          <mxGeometry x="240" y="130" width="80" height="80" as="geometry" />
        </mxCell>
        <mxCell id="FyyPBsqEvOjFrn_GXzJg-15" value="" style="endArrow=none;html=1;rounded=0;entryX=0;entryY=0.5;entryDx=0;entryDy=0;exitX=1;exitY=0.5;exitDx=0;exitDy=0;" parent="1" source="FyyPBsqEvOjFrn_GXzJg-1" target="FyyPBsqEvOjFrn_GXzJg-14" edge="1">
          <mxGeometry width="50" height="50" relative="1" as="geometry">
            <mxPoint x="180" y="170" as="sourcePoint" />
            <mxPoint x="230" y="120" as="targetPoint" />
          </mxGeometry>
        </mxCell>
        <mxCell id="FyyPBsqEvOjFrn_GXzJg-16" value="" style="endArrow=none;html=1;rounded=0;exitX=1;exitY=0.5;exitDx=0;exitDy=0;entryX=0;entryY=0.5;entryDx=0;entryDy=0;" parent="1" source="FyyPBsqEvOjFrn_GXzJg-14" target="FyyPBsqEvOjFrn_GXzJg-6" edge="1">
          <mxGeometry width="50" height="50" relative="1" as="geometry">
            <mxPoint x="320" y="180" as="sourcePoint" />
            <mxPoint x="370" y="130" as="targetPoint" />
          </mxGeometry>
        </mxCell>
        <mxCell id="FyyPBsqEvOjFrn_GXzJg-17" value="1" style="text;html=1;align=center;verticalAlign=middle;resizable=0;points=[];autosize=1;strokeColor=none;fillColor=none;" parent="1" vertex="1">
          <mxGeometry x="185" y="138" width="30" height="30" as="geometry" />
        </mxCell>
        <mxCell id="FyyPBsqEvOjFrn_GXzJg-18" value="M" style="text;html=1;align=center;verticalAlign=middle;resizable=0;points=[];autosize=1;strokeColor=none;fillColor=none;" parent="1" vertex="1">
          <mxGeometry x="335" y="140" width="30" height="30" as="geometry" />
        </mxCell>
        <mxCell id="FyyPBsqEvOjFrn_GXzJg-21" value="" style="endArrow=none;html=1;rounded=0;exitX=0.885;exitY=0.635;exitDx=0;exitDy=0;exitPerimeter=0;entryX=0;entryY=0.75;entryDx=0;entryDy=0;" parent="1" source="FyyPBsqEvOjFrn_GXzJg-14" target="FyyPBsqEvOjFrn_GXzJg-6" edge="1">
          <mxGeometry width="50" height="50" relative="1" as="geometry">
            <mxPoint x="330" y="180" as="sourcePoint" />
            <mxPoint x="380" y="180" as="targetPoint" />
          </mxGeometry>
        </mxCell>
        <mxCell id="FyyPBsqEvOjFrn_GXzJg-23" value="Manage" style="rhombus;whiteSpace=wrap;html=1;" parent="1" vertex="1">
          <mxGeometry x="240" y="20" width="80" height="80" as="geometry" />
        </mxCell>
        <mxCell id="FyyPBsqEvOjFrn_GXzJg-24" value="" style="endArrow=none;html=1;rounded=0;exitX=1;exitY=0.5;exitDx=0;exitDy=0;" parent="1" source="FyyPBsqEvOjFrn_GXzJg-1" edge="1">
          <mxGeometry width="50" height="50" relative="1" as="geometry">
            <mxPoint x="190" y="110" as="sourcePoint" />
            <mxPoint x="245" y="70" as="targetPoint" />
          </mxGeometry>
        </mxCell>
        <mxCell id="FyyPBsqEvOjFrn_GXzJg-25" value="" style="endArrow=none;html=1;rounded=0;entryX=1;entryY=0.5;entryDx=0;entryDy=0;exitX=0;exitY=0.5;exitDx=0;exitDy=0;" parent="1" source="FyyPBsqEvOjFrn_GXzJg-6" target="FyyPBsqEvOjFrn_GXzJg-23" edge="1">
          <mxGeometry width="50" height="50" relative="1" as="geometry">
            <mxPoint x="335" y="110" as="sourcePoint" />
            <mxPoint x="385" y="60" as="targetPoint" />
          </mxGeometry>
        </mxCell>
        <mxCell id="FyyPBsqEvOjFrn_GXzJg-26" value="1" style="text;html=1;align=center;verticalAlign=middle;resizable=0;points=[];autosize=1;strokeColor=none;fillColor=none;" parent="1" vertex="1">
          <mxGeometry x="150" y="110" width="30" height="30" as="geometry" />
        </mxCell>
        <mxCell id="FyyPBsqEvOjFrn_GXzJg-29" value="1" style="text;html=1;align=center;verticalAlign=middle;resizable=0;points=[];autosize=1;strokeColor=none;fillColor=none;" parent="1" vertex="1">
          <mxGeometry x="380" y="108" width="30" height="30" as="geometry" />
        </mxCell>
        <mxCell id="FyyPBsqEvOjFrn_GXzJg-31" value="" style="endArrow=none;html=1;rounded=0;" parent="1" edge="1">
          <mxGeometry width="50" height="50" relative="1" as="geometry">
            <mxPoint x="150" y="150" as="sourcePoint" />
            <mxPoint x="240" y="60" as="targetPoint" />
          </mxGeometry>
        </mxCell>
        <mxCell id="FyyPBsqEvOjFrn_GXzJg-32" value="Property" style="rounded=0;whiteSpace=wrap;html=1;" parent="1" vertex="1">
          <mxGeometry x="60" y="450" width="120" height="60" as="geometry" />
        </mxCell>
        <mxCell id="FyyPBsqEvOjFrn_GXzJg-33" value="P_ID" style="ellipse;whiteSpace=wrap;html=1;" parent="1" vertex="1">
          <mxGeometry x="20" y="580" width="100" height="60" as="geometry" />
        </mxCell>
        <mxCell id="FyyPBsqEvOjFrn_GXzJg-35" value="Location" style="ellipse;whiteSpace=wrap;html=1;" parent="1" vertex="1">
          <mxGeometry x="160" y="580" width="100" height="60" as="geometry" />
        </mxCell>
        <mxCell id="FyyPBsqEvOjFrn_GXzJg-38" value="City" style="ellipse;whiteSpace=wrap;html=1;" parent="1" vertex="1">
          <mxGeometry x="200" y="690" width="60" height="40" as="geometry" />
        </mxCell>
        <mxCell id="FyyPBsqEvOjFrn_GXzJg-40" value="State" style="ellipse;whiteSpace=wrap;html=1;" parent="1" vertex="1">
          <mxGeometry x="290" y="690" width="60" height="40" as="geometry" />
        </mxCell>
        <mxCell id="FyyPBsqEvOjFrn_GXzJg-41" value="Address" style="ellipse;whiteSpace=wrap;html=1;" parent="1" vertex="1">
          <mxGeometry x="120" y="690" width="60" height="40" as="geometry" />
        </mxCell>
        <mxCell id="FyyPBsqEvOjFrn_GXzJg-42" value="Zip_Code" style="ellipse;whiteSpace=wrap;html=1;" parent="1" vertex="1">
          <mxGeometry x="380" y="690" width="60" height="40" as="geometry" />
        </mxCell>
        <mxCell id="FyyPBsqEvOjFrn_GXzJg-43" value="" style="endArrow=none;html=1;rounded=0;" parent="1" edge="1">
          <mxGeometry width="50" height="50" relative="1" as="geometry">
            <mxPoint x="150" y="690" as="sourcePoint" />
            <mxPoint x="200" y="640" as="targetPoint" />
          </mxGeometry>
        </mxCell>
        <mxCell id="FyyPBsqEvOjFrn_GXzJg-44" value="" style="endArrow=none;html=1;rounded=0;entryX=0.5;entryY=1;entryDx=0;entryDy=0;" parent="1" target="FyyPBsqEvOjFrn_GXzJg-35" edge="1">
          <mxGeometry width="50" height="50" relative="1" as="geometry">
            <mxPoint x="230" y="690" as="sourcePoint" />
            <mxPoint x="280" y="640" as="targetPoint" />
          </mxGeometry>
        </mxCell>
        <mxCell id="FyyPBsqEvOjFrn_GXzJg-45" value="" style="endArrow=none;html=1;rounded=0;entryX=0.708;entryY=0.96;entryDx=0;entryDy=0;entryPerimeter=0;" parent="1" target="FyyPBsqEvOjFrn_GXzJg-35" edge="1">
          <mxGeometry width="50" height="50" relative="1" as="geometry">
            <mxPoint x="315" y="690" as="sourcePoint" />
            <mxPoint x="365" y="640" as="targetPoint" />
          </mxGeometry>
        </mxCell>
        <mxCell id="FyyPBsqEvOjFrn_GXzJg-46" value="" style="endArrow=none;html=1;rounded=0;entryX=1;entryY=1;entryDx=0;entryDy=0;" parent="1" target="FyyPBsqEvOjFrn_GXzJg-35" edge="1">
          <mxGeometry width="50" height="50" relative="1" as="geometry">
            <mxPoint x="410" y="690" as="sourcePoint" />
            <mxPoint x="460" y="640" as="targetPoint" />
          </mxGeometry>
        </mxCell>
        <mxCell id="FyyPBsqEvOjFrn_GXzJg-47" value="" style="endArrow=none;html=1;rounded=0;entryX=0.25;entryY=1;entryDx=0;entryDy=0;" parent="1" target="FyyPBsqEvOjFrn_GXzJg-32" edge="1">
          <mxGeometry width="50" height="50" relative="1" as="geometry">
            <mxPoint x="70" y="580" as="sourcePoint" />
            <mxPoint x="120" y="530" as="targetPoint" />
          </mxGeometry>
        </mxCell>
        <mxCell id="FyyPBsqEvOjFrn_GXzJg-48" value="" style="endArrow=none;html=1;rounded=0;entryX=0.5;entryY=0;entryDx=0;entryDy=0;exitX=0.67;exitY=1.02;exitDx=0;exitDy=0;exitPerimeter=0;" parent="1" source="FyyPBsqEvOjFrn_GXzJg-32" target="FyyPBsqEvOjFrn_GXzJg-35" edge="1">
          <mxGeometry width="50" height="50" relative="1" as="geometry">
            <mxPoint x="190" y="730" as="sourcePoint" />
            <mxPoint x="240" y="680" as="targetPoint" />
          </mxGeometry>
        </mxCell>
        <mxCell id="FyyPBsqEvOjFrn_GXzJg-49" value="Listed" style="rhombus;whiteSpace=wrap;html=1;" parent="1" vertex="1">
          <mxGeometry x="50" y="290" width="80" height="80" as="geometry" />
        </mxCell>
        <mxCell id="FyyPBsqEvOjFrn_GXzJg-51" value="" style="endArrow=none;html=1;rounded=0;entryX=0.5;entryY=0;entryDx=0;entryDy=0;" parent="1" edge="1">
          <mxGeometry width="50" height="50" relative="1" as="geometry">
            <mxPoint x="90" y="370" as="sourcePoint" />
            <mxPoint x="89.5" y="450" as="targetPoint" />
          </mxGeometry>
        </mxCell>
        <mxCell id="FyyPBsqEvOjFrn_GXzJg-52" value="" style="endArrow=none;html=1;rounded=0;entryX=0.333;entryY=0.007;entryDx=0;entryDy=0;entryPerimeter=0;" parent="1" target="FyyPBsqEvOjFrn_GXzJg-32" edge="1">
          <mxGeometry width="50" height="50" relative="1" as="geometry">
            <mxPoint x="100" y="360" as="sourcePoint" />
            <mxPoint x="99.5" y="440" as="targetPoint" />
          </mxGeometry>
        </mxCell>
        <mxCell id="FyyPBsqEvOjFrn_GXzJg-53" value="1" style="text;html=1;align=center;verticalAlign=middle;resizable=0;points=[];autosize=1;strokeColor=none;fillColor=none;" parent="1" vertex="1">
          <mxGeometry x="95" y="418" width="30" height="30" as="geometry" />
        </mxCell>
        <mxCell id="FyyPBsqEvOjFrn_GXzJg-54" value="M" style="text;html=1;align=center;verticalAlign=middle;resizable=0;points=[];autosize=1;strokeColor=none;fillColor=none;" parent="1" vertex="1">
          <mxGeometry x="65" y="198" width="30" height="30" as="geometry" />
        </mxCell>
        <mxCell id="FyyPBsqEvOjFrn_GXzJg-55" value="Owner" style="rounded=0;whiteSpace=wrap;html=1;" parent="1" vertex="1">
          <mxGeometry x="410" y="450" width="120" height="60" as="geometry" />
        </mxCell>
        <mxCell id="FyyPBsqEvOjFrn_GXzJg-56" value="Has" style="rhombus;whiteSpace=wrap;html=1;" parent="1" vertex="1">
          <mxGeometry x="255" y="440" width="80" height="80" as="geometry" />
        </mxCell>
        <mxCell id="FyyPBsqEvOjFrn_GXzJg-57" value="" style="endArrow=none;html=1;rounded=0;entryX=0;entryY=0.5;entryDx=0;entryDy=0;" parent="1" target="FyyPBsqEvOjFrn_GXzJg-56" edge="1">
          <mxGeometry width="50" height="50" relative="1" as="geometry">
            <mxPoint x="180" y="480" as="sourcePoint" />
            <mxPoint x="230" y="430" as="targetPoint" />
          </mxGeometry>
        </mxCell>
        <mxCell id="FyyPBsqEvOjFrn_GXzJg-58" value="" style="endArrow=none;html=1;rounded=0;entryX=0;entryY=0.5;entryDx=0;entryDy=0;" parent="1" edge="1">
          <mxGeometry width="50" height="50" relative="1" as="geometry">
            <mxPoint x="335" y="479.5" as="sourcePoint" />
            <mxPoint x="410" y="479.5" as="targetPoint" />
          </mxGeometry>
        </mxCell>
        <mxCell id="FyyPBsqEvOjFrn_GXzJg-59" value="M" style="text;html=1;align=center;verticalAlign=middle;resizable=0;points=[];autosize=1;strokeColor=none;fillColor=none;" parent="1" vertex="1">
          <mxGeometry x="175" y="448" width="30" height="30" as="geometry" />
        </mxCell>
        <mxCell id="FyyPBsqEvOjFrn_GXzJg-60" value="M" style="text;html=1;align=center;verticalAlign=middle;resizable=0;points=[];autosize=1;strokeColor=none;fillColor=none;" parent="1" vertex="1">
          <mxGeometry x="375" y="448" width="30" height="30" as="geometry" />
        </mxCell>
        <mxCell id="FyyPBsqEvOjFrn_GXzJg-62" value="" style="endArrow=none;html=1;rounded=0;entryX=0.003;entryY=0.647;entryDx=0;entryDy=0;entryPerimeter=0;" parent="1" target="FyyPBsqEvOjFrn_GXzJg-55" edge="1">
          <mxGeometry width="50" height="50" relative="1" as="geometry">
            <mxPoint x="325" y="489.5" as="sourcePoint" />
            <mxPoint x="400" y="489.5" as="targetPoint" />
          </mxGeometry>
        </mxCell>
        <mxCell id="FyyPBsqEvOjFrn_GXzJg-64" value="O_ID" style="ellipse;whiteSpace=wrap;html=1;" parent="1" vertex="1">
          <mxGeometry x="375" y="570" width="60" height="40" as="geometry" />
        </mxCell>
        <mxCell id="FyyPBsqEvOjFrn_GXzJg-65" value="O_Name" style="ellipse;whiteSpace=wrap;html=1;" parent="1" vertex="1">
          <mxGeometry x="460" y="570" width="60" height="40" as="geometry" />
        </mxCell>
        <mxCell id="FyyPBsqEvOjFrn_GXzJg-68" value="Percent" style="ellipse;whiteSpace=wrap;html=1;" parent="1" vertex="1">
          <mxGeometry x="265" y="378" width="60" height="40" as="geometry" />
        </mxCell>
        <mxCell id="FyyPBsqEvOjFrn_GXzJg-69" value="" style="endArrow=none;html=1;rounded=0;" parent="1" edge="1">
          <mxGeometry width="50" height="50" relative="1" as="geometry">
            <mxPoint x="294" y="420" as="sourcePoint" />
            <mxPoint x="294" y="440" as="targetPoint" />
          </mxGeometry>
        </mxCell>
        <mxCell id="FyyPBsqEvOjFrn_GXzJg-70" value="&lt;font style=&quot;font-size: 24px;&quot;&gt;Problem 2&lt;/font&gt;" style="text;html=1;strokeColor=none;fillColor=none;align=center;verticalAlign=middle;whiteSpace=wrap;rounded=0;" parent="1" vertex="1">
          <mxGeometry x="185" y="-50" width="190" height="70" as="geometry" />
        </mxCell>
        <mxCell id="FyyPBsqEvOjFrn_GXzJg-71" value="&lt;font style=&quot;font-size: 18px;&quot;&gt;Ward&lt;/font&gt;" style="rounded=0;whiteSpace=wrap;html=1;" parent="1" vertex="1">
          <mxGeometry x="650" y="290" width="120" height="60" as="geometry" />
        </mxCell>
        <mxCell id="FyyPBsqEvOjFrn_GXzJg-72" value="&lt;font style=&quot;font-size: 18px;&quot;&gt;W_ID&lt;/font&gt;" style="ellipse;whiteSpace=wrap;html=1;" parent="1" vertex="1">
          <mxGeometry x="560" y="207" width="120" height="53" as="geometry" />
        </mxCell>
        <mxCell id="FyyPBsqEvOjFrn_GXzJg-73" value="&lt;font style=&quot;font-size: 18px;&quot;&gt;W_Name&lt;/font&gt;" style="ellipse;whiteSpace=wrap;html=1;" parent="1" vertex="1">
          <mxGeometry x="740" y="418" width="120" height="53" as="geometry" />
        </mxCell>
        <mxCell id="FyyPBsqEvOjFrn_GXzJg-74" value="" style="endArrow=none;html=1;rounded=0;exitX=0.433;exitY=0.986;exitDx=0;exitDy=0;exitPerimeter=0;entryX=0;entryY=0;entryDx=0;entryDy=0;" parent="1" source="FyyPBsqEvOjFrn_GXzJg-72" target="FyyPBsqEvOjFrn_GXzJg-71" edge="1">
          <mxGeometry width="50" height="50" relative="1" as="geometry">
            <mxPoint x="600" y="400" as="sourcePoint" />
            <mxPoint x="650" y="350" as="targetPoint" />
          </mxGeometry>
        </mxCell>
        <mxCell id="FyyPBsqEvOjFrn_GXzJg-75" value="" style="endArrow=none;html=1;rounded=0;exitX=0.5;exitY=0;exitDx=0;exitDy=0;" parent="1" source="FyyPBsqEvOjFrn_GXzJg-73" edge="1">
          <mxGeometry width="50" height="50" relative="1" as="geometry">
            <mxPoint x="760" y="418" as="sourcePoint" />
            <mxPoint x="770" y="348" as="targetPoint" />
          </mxGeometry>
        </mxCell>
        <mxCell id="FyyPBsqEvOjFrn_GXzJg-76" value="&lt;font style=&quot;font-size: 18px;&quot;&gt;Patient&lt;/font&gt;" style="rounded=0;whiteSpace=wrap;html=1;" parent="1" vertex="1">
          <mxGeometry x="1040" y="290" width="120" height="60" as="geometry" />
        </mxCell>
        <mxCell id="FyyPBsqEvOjFrn_GXzJg-77" value="&lt;font style=&quot;font-size: 18px;&quot;&gt;P_ID&lt;/font&gt;" style="ellipse;whiteSpace=wrap;html=1;" parent="1" vertex="1">
          <mxGeometry x="1030" y="190" width="120" height="53" as="geometry" />
        </mxCell>
        <mxCell id="FyyPBsqEvOjFrn_GXzJg-78" value="&lt;font style=&quot;font-size: 18px;&quot;&gt;P_Name&lt;/font&gt;" style="ellipse;whiteSpace=wrap;html=1;" parent="1" vertex="1">
          <mxGeometry x="1160" y="228" width="120" height="53" as="geometry" />
        </mxCell>
        <mxCell id="FyyPBsqEvOjFrn_GXzJg-79" value="&lt;span style=&quot;font-size: 18px;&quot;&gt;BD&lt;/span&gt;" style="ellipse;whiteSpace=wrap;html=1;" parent="1" vertex="1">
          <mxGeometry x="1210" y="420" width="120" height="53" as="geometry" />
        </mxCell>
        <mxCell id="FyyPBsqEvOjFrn_GXzJg-80" value="" style="endArrow=none;html=1;rounded=0;exitX=0.5;exitY=1;exitDx=0;exitDy=0;entryX=0;entryY=0;entryDx=0;entryDy=0;" parent="1" source="FyyPBsqEvOjFrn_GXzJg-77" target="FyyPBsqEvOjFrn_GXzJg-76" edge="1">
          <mxGeometry width="50" height="50" relative="1" as="geometry">
            <mxPoint x="990" y="400" as="sourcePoint" />
            <mxPoint x="1040" y="350" as="targetPoint" />
          </mxGeometry>
        </mxCell>
        <mxCell id="FyyPBsqEvOjFrn_GXzJg-81" value="" style="endArrow=none;html=1;rounded=0;entryX=1;entryY=0;entryDx=0;entryDy=0;" parent="1" target="FyyPBsqEvOjFrn_GXzJg-76" edge="1">
          <mxGeometry width="50" height="50" relative="1" as="geometry">
            <mxPoint x="1160" y="290" as="sourcePoint" />
            <mxPoint x="1170" y="350" as="targetPoint" />
            <Array as="points">
              <mxPoint x="1230" y="280" />
            </Array>
          </mxGeometry>
        </mxCell>
        <mxCell id="FyyPBsqEvOjFrn_GXzJg-82" value="" style="endArrow=none;html=1;rounded=0;entryX=0.5;entryY=1;entryDx=0;entryDy=0;" parent="1" edge="1">
          <mxGeometry width="50" height="50" relative="1" as="geometry">
            <mxPoint x="1270" y="418" as="sourcePoint" />
            <mxPoint x="1160" y="348" as="targetPoint" />
          </mxGeometry>
        </mxCell>
        <mxCell id="FyyPBsqEvOjFrn_GXzJg-83" value="&lt;font style=&quot;font-size: 18px;&quot;&gt;Host&lt;/font&gt;" style="rhombus;whiteSpace=wrap;html=1;" parent="1" vertex="1">
          <mxGeometry x="870" y="280" width="80" height="80" as="geometry" />
        </mxCell>
        <mxCell id="FyyPBsqEvOjFrn_GXzJg-84" value="" style="endArrow=none;html=1;rounded=0;entryX=0;entryY=0.5;entryDx=0;entryDy=0;" parent="1" target="FyyPBsqEvOjFrn_GXzJg-83" edge="1">
          <mxGeometry width="50" height="50" relative="1" as="geometry">
            <mxPoint x="770" y="320" as="sourcePoint" />
            <mxPoint x="820" y="270" as="targetPoint" />
          </mxGeometry>
        </mxCell>
        <mxCell id="FyyPBsqEvOjFrn_GXzJg-85" value="" style="endArrow=none;html=1;rounded=0;exitX=1;exitY=0.5;exitDx=0;exitDy=0;" parent="1" source="FyyPBsqEvOjFrn_GXzJg-83" edge="1">
          <mxGeometry width="50" height="50" relative="1" as="geometry">
            <mxPoint x="960" y="319.38" as="sourcePoint" />
            <mxPoint x="1040" y="319" as="targetPoint" />
          </mxGeometry>
        </mxCell>
        <mxCell id="FyyPBsqEvOjFrn_GXzJg-86" value="1" style="text;html=1;align=center;verticalAlign=middle;resizable=0;points=[];autosize=1;strokeColor=none;fillColor=none;" parent="1" vertex="1">
          <mxGeometry x="775" y="288" width="30" height="30" as="geometry" />
        </mxCell>
        <mxCell id="FyyPBsqEvOjFrn_GXzJg-87" value="M" style="text;html=1;align=center;verticalAlign=middle;resizable=0;points=[];autosize=1;strokeColor=none;fillColor=none;" parent="1" vertex="1">
          <mxGeometry x="1005" y="288" width="30" height="30" as="geometry" />
        </mxCell>
        <mxCell id="FyyPBsqEvOjFrn_GXzJg-88" value="&lt;font style=&quot;font-size: 24px;&quot;&gt;Problem 3&lt;/font&gt;" style="text;html=1;align=center;verticalAlign=middle;resizable=0;points=[];autosize=1;strokeColor=none;fillColor=none;" parent="1" vertex="1">
          <mxGeometry x="850" y="150" width="130" height="40" as="geometry" />
        </mxCell>
        <mxCell id="FyyPBsqEvOjFrn_GXzJg-89" value="&lt;font size=&quot;3&quot;&gt;Consultant&lt;/font&gt;" style="rounded=0;whiteSpace=wrap;html=1;" parent="1" vertex="1">
          <mxGeometry x="1240" y="598" width="120" height="60" as="geometry" />
        </mxCell>
        <mxCell id="FyyPBsqEvOjFrn_GXzJg-90" value="&lt;font style=&quot;font-size: 18px;&quot;&gt;C_ID&lt;/font&gt;" style="ellipse;whiteSpace=wrap;html=1;" parent="1" vertex="1">
          <mxGeometry x="1180" y="730" width="120" height="53" as="geometry" />
        </mxCell>
        <mxCell id="FyyPBsqEvOjFrn_GXzJg-91" value="&lt;font style=&quot;font-size: 18px;&quot;&gt;C_Name&lt;/font&gt;" style="ellipse;whiteSpace=wrap;html=1;" parent="1" vertex="1">
          <mxGeometry x="1370" y="710" width="120" height="53" as="geometry" />
        </mxCell>
        <mxCell id="FyyPBsqEvOjFrn_GXzJg-92" value="" style="endArrow=none;html=1;rounded=0;exitX=0.5;exitY=0;exitDx=0;exitDy=0;entryX=0;entryY=1;entryDx=0;entryDy=0;" parent="1" source="FyyPBsqEvOjFrn_GXzJg-90" target="FyyPBsqEvOjFrn_GXzJg-89" edge="1">
          <mxGeometry width="50" height="50" relative="1" as="geometry">
            <mxPoint x="970" y="740" as="sourcePoint" />
            <mxPoint x="1020" y="670" as="targetPoint" />
          </mxGeometry>
        </mxCell>
        <mxCell id="FyyPBsqEvOjFrn_GXzJg-93" value="" style="endArrow=none;html=1;rounded=0;exitX=0.5;exitY=0;exitDx=0;exitDy=0;" parent="1" source="FyyPBsqEvOjFrn_GXzJg-91" edge="1">
          <mxGeometry width="50" height="50" relative="1" as="geometry">
            <mxPoint x="1080" y="720" as="sourcePoint" />
            <mxPoint x="1360" y="660" as="targetPoint" />
          </mxGeometry>
        </mxCell>
        <mxCell id="FyyPBsqEvOjFrn_GXzJg-94" value="" style="endArrow=none;html=1;rounded=0;exitX=0.875;exitY=0.628;exitDx=0;exitDy=0;exitPerimeter=0;" parent="1" source="FyyPBsqEvOjFrn_GXzJg-83" edge="1">
          <mxGeometry width="50" height="50" relative="1" as="geometry">
            <mxPoint x="960" y="330.38" as="sourcePoint" />
            <mxPoint x="1040" y="329" as="targetPoint" />
          </mxGeometry>
        </mxCell>
        <mxCell id="FyyPBsqEvOjFrn_GXzJg-95" value="Assign" style="rhombus;whiteSpace=wrap;html=1;" parent="1" vertex="1">
          <mxGeometry x="1045" y="480" width="80" height="80" as="geometry" />
        </mxCell>
        <mxCell id="FyyPBsqEvOjFrn_GXzJg-96" value="" style="endArrow=none;html=1;rounded=0;entryX=0.25;entryY=1;entryDx=0;entryDy=0;exitX=0.5;exitY=0;exitDx=0;exitDy=0;" parent="1" source="FyyPBsqEvOjFrn_GXzJg-95" target="FyyPBsqEvOjFrn_GXzJg-76" edge="1">
          <mxGeometry width="50" height="50" relative="1" as="geometry">
            <mxPoint x="1050" y="500" as="sourcePoint" />
            <mxPoint x="1100" y="450" as="targetPoint" />
          </mxGeometry>
        </mxCell>
        <mxCell id="FyyPBsqEvOjFrn_GXzJg-97" value="" style="endArrow=none;html=1;rounded=0;exitX=0;exitY=0;exitDx=0;exitDy=0;entryX=0.5;entryY=1;entryDx=0;entryDy=0;" parent="1" source="FyyPBsqEvOjFrn_GXzJg-89" target="FyyPBsqEvOjFrn_GXzJg-95" edge="1">
          <mxGeometry width="50" height="50" relative="1" as="geometry">
            <mxPoint x="1050" y="700" as="sourcePoint" />
            <mxPoint x="1060" y="570" as="targetPoint" />
          </mxGeometry>
        </mxCell>
        <mxCell id="FyyPBsqEvOjFrn_GXzJg-98" value="1" style="text;html=1;align=center;verticalAlign=middle;resizable=0;points=[];autosize=1;strokeColor=none;fillColor=none;" parent="1" vertex="1">
          <mxGeometry x="1200" y="598" width="30" height="30" as="geometry" />
        </mxCell>
        <mxCell id="FyyPBsqEvOjFrn_GXzJg-99" value="M" style="text;html=1;align=center;verticalAlign=middle;resizable=0;points=[];autosize=1;strokeColor=none;fillColor=none;" parent="1" vertex="1">
          <mxGeometry x="1045" y="348" width="30" height="30" as="geometry" />
        </mxCell>
        <mxCell id="FyyPBsqEvOjFrn_GXzJg-100" value="" style="endArrow=none;html=1;rounded=0;exitX=0.625;exitY=0.028;exitDx=0;exitDy=0;exitPerimeter=0;" parent="1" source="FyyPBsqEvOjFrn_GXzJg-95" edge="1">
          <mxGeometry width="50" height="50" relative="1" as="geometry">
            <mxPoint x="1070" y="480" as="sourcePoint" />
            <mxPoint x="1080" y="350" as="targetPoint" />
          </mxGeometry>
        </mxCell>
        <mxCell id="FyyPBsqEvOjFrn_GXzJg-101" value="Examine" style="rhombus;whiteSpace=wrap;html=1;" parent="1" vertex="1">
          <mxGeometry x="1140" y="450" width="80" height="80" as="geometry" />
        </mxCell>
        <mxCell id="FyyPBsqEvOjFrn_GXzJg-102" value="" style="endArrow=none;html=1;rounded=0;entryX=0.625;entryY=1.038;entryDx=0;entryDy=0;entryPerimeter=0;exitX=0.5;exitY=0;exitDx=0;exitDy=0;" parent="1" source="FyyPBsqEvOjFrn_GXzJg-101" target="FyyPBsqEvOjFrn_GXzJg-76" edge="1">
          <mxGeometry width="50" height="50" relative="1" as="geometry">
            <mxPoint x="1210" y="500" as="sourcePoint" />
            <mxPoint x="1260" y="450" as="targetPoint" />
          </mxGeometry>
        </mxCell>
        <mxCell id="FyyPBsqEvOjFrn_GXzJg-103" value="" style="endArrow=none;html=1;rounded=0;entryX=0.5;entryY=1;entryDx=0;entryDy=0;exitX=0.417;exitY=-0.063;exitDx=0;exitDy=0;exitPerimeter=0;" parent="1" source="FyyPBsqEvOjFrn_GXzJg-89" target="FyyPBsqEvOjFrn_GXzJg-101" edge="1">
          <mxGeometry width="50" height="50" relative="1" as="geometry">
            <mxPoint x="1140" y="610" as="sourcePoint" />
            <mxPoint x="1190" y="560" as="targetPoint" />
          </mxGeometry>
        </mxCell>
        <mxCell id="FyyPBsqEvOjFrn_GXzJg-104" value="1" style="text;html=1;align=center;verticalAlign=middle;resizable=0;points=[];autosize=1;strokeColor=none;fillColor=none;" parent="1" vertex="1">
          <mxGeometry x="1125" y="358" width="30" height="30" as="geometry" />
        </mxCell>
        <mxCell id="FyyPBsqEvOjFrn_GXzJg-105" value="M" style="text;html=1;align=center;verticalAlign=middle;resizable=0;points=[];autosize=1;strokeColor=none;fillColor=none;" parent="1" vertex="1">
          <mxGeometry x="1280" y="560" width="30" height="30" as="geometry" />
        </mxCell>
        <mxCell id="FyyPBsqEvOjFrn_GXzJg-108" value="" style="endArrow=none;html=1;rounded=0;" parent="1" edge="1">
          <mxGeometry width="50" height="50" relative="1" as="geometry">
            <mxPoint x="570" y="820" as="sourcePoint" />
            <mxPoint x="560" y="30" as="targetPoint" />
          </mxGeometry>
        </mxCell>
        <mxCell id="FyyPBsqEvOjFrn_GXzJg-109" value="&lt;font style=&quot;font-size: 18px;&quot;&gt;Nurse&lt;/font&gt;" style="rounded=0;whiteSpace=wrap;html=1;" parent="1" vertex="1">
          <mxGeometry x="655" y="610" width="120" height="60" as="geometry" />
        </mxCell>
        <mxCell id="FyyPBsqEvOjFrn_GXzJg-110" value="&lt;font style=&quot;font-size: 18px;&quot;&gt;N_Name&lt;/font&gt;" style="ellipse;whiteSpace=wrap;html=1;" parent="1" vertex="1">
          <mxGeometry x="580" y="720" width="90" height="53" as="geometry" />
        </mxCell>
        <mxCell id="FyyPBsqEvOjFrn_GXzJg-111" value="&lt;font style=&quot;font-size: 18px;&quot;&gt;N_address&lt;/font&gt;" style="ellipse;whiteSpace=wrap;html=1;" parent="1" vertex="1">
          <mxGeometry x="780" y="720" width="90" height="53" as="geometry" />
        </mxCell>
        <mxCell id="FyyPBsqEvOjFrn_GXzJg-112" value="&lt;font style=&quot;font-size: 18px;&quot;&gt;N_Num&lt;/font&gt;" style="ellipse;whiteSpace=wrap;html=1;" parent="1" vertex="1">
          <mxGeometry x="680" y="720" width="90" height="53" as="geometry" />
        </mxCell>
        <mxCell id="FyyPBsqEvOjFrn_GXzJg-113" value="" style="endArrow=none;html=1;rounded=0;" parent="1" edge="1">
          <mxGeometry width="50" height="50" relative="1" as="geometry">
            <mxPoint x="610" y="720" as="sourcePoint" />
            <mxPoint x="660" y="670" as="targetPoint" />
          </mxGeometry>
        </mxCell>
        <mxCell id="FyyPBsqEvOjFrn_GXzJg-114" value="" style="endArrow=none;html=1;rounded=0;exitX=0.5;exitY=0;exitDx=0;exitDy=0;" parent="1" source="FyyPBsqEvOjFrn_GXzJg-111" edge="1">
          <mxGeometry width="50" height="50" relative="1" as="geometry">
            <mxPoint x="725" y="720" as="sourcePoint" />
            <mxPoint x="775" y="670" as="targetPoint" />
          </mxGeometry>
        </mxCell>
        <mxCell id="FyyPBsqEvOjFrn_GXzJg-115" value="" style="endArrow=none;html=1;rounded=0;exitX=0.5;exitY=0;exitDx=0;exitDy=0;" parent="1" source="FyyPBsqEvOjFrn_GXzJg-112" edge="1">
          <mxGeometry width="50" height="50" relative="1" as="geometry">
            <mxPoint x="670" y="720" as="sourcePoint" />
            <mxPoint x="720" y="670" as="targetPoint" />
          </mxGeometry>
        </mxCell>
        <mxCell id="FyyPBsqEvOjFrn_GXzJg-116" value="Drug" style="rounded=0;whiteSpace=wrap;html=1;" parent="1" vertex="1">
          <mxGeometry x="970" y="610" width="120" height="60" as="geometry" />
        </mxCell>
        <mxCell id="FyyPBsqEvOjFrn_GXzJg-117" value="&lt;font style=&quot;font-size: 18px;&quot;&gt;D_Code&lt;/font&gt;" style="ellipse;whiteSpace=wrap;html=1;" parent="1" vertex="1">
          <mxGeometry x="890" y="730" width="80" height="43" as="geometry" />
        </mxCell>
        <mxCell id="FyyPBsqEvOjFrn_GXzJg-118" value="&lt;font style=&quot;font-size: 18px;&quot;&gt;Dosage&lt;/font&gt;" style="ellipse;whiteSpace=wrap;html=1;" parent="1" vertex="1">
          <mxGeometry x="980" y="730" width="80" height="43" as="geometry" />
        </mxCell>
        <mxCell id="FyyPBsqEvOjFrn_GXzJg-119" value="&lt;font style=&quot;font-size: 18px;&quot;&gt;Brand&lt;/font&gt;" style="ellipse;whiteSpace=wrap;html=1;" parent="1" vertex="1">
          <mxGeometry x="1070" y="731.5" width="80" height="50" as="geometry" />
        </mxCell>
        <mxCell id="FyyPBsqEvOjFrn_GXzJg-120" value="Brand" style="ellipse;whiteSpace=wrap;html=1;" parent="1" vertex="1">
          <mxGeometry x="1075" y="736.5" width="70" height="40" as="geometry" />
        </mxCell>
        <mxCell id="FyyPBsqEvOjFrn_GXzJg-121" value="" style="endArrow=none;html=1;rounded=0;entryX=0;entryY=1;entryDx=0;entryDy=0;" parent="1" target="FyyPBsqEvOjFrn_GXzJg-116" edge="1">
          <mxGeometry width="50" height="50" relative="1" as="geometry">
            <mxPoint x="930" y="730" as="sourcePoint" />
            <mxPoint x="980" y="680" as="targetPoint" />
          </mxGeometry>
        </mxCell>
        <mxCell id="FyyPBsqEvOjFrn_GXzJg-122" value="" style="endArrow=none;html=1;rounded=0;entryX=0.5;entryY=1;entryDx=0;entryDy=0;exitX=0.5;exitY=0;exitDx=0;exitDy=0;" parent="1" source="FyyPBsqEvOjFrn_GXzJg-118" target="FyyPBsqEvOjFrn_GXzJg-116" edge="1">
          <mxGeometry width="50" height="50" relative="1" as="geometry">
            <mxPoint x="940" y="740" as="sourcePoint" />
            <mxPoint x="910" y="680" as="targetPoint" />
          </mxGeometry>
        </mxCell>
        <mxCell id="FyyPBsqEvOjFrn_GXzJg-123" value="" style="endArrow=none;html=1;rounded=0;exitX=0.5;exitY=0;exitDx=0;exitDy=0;entryX=1;entryY=1;entryDx=0;entryDy=0;" parent="1" source="FyyPBsqEvOjFrn_GXzJg-119" target="FyyPBsqEvOjFrn_GXzJg-116" edge="1">
          <mxGeometry width="50" height="50" relative="1" as="geometry">
            <mxPoint x="1030" y="740" as="sourcePoint" />
            <mxPoint x="1020" y="680" as="targetPoint" />
          </mxGeometry>
        </mxCell>
        <mxCell id="FyyPBsqEvOjFrn_GXzJg-124" value="Supervise" style="rhombus;whiteSpace=wrap;html=1;" parent="1" vertex="1">
          <mxGeometry x="670" y="480" width="80" height="80" as="geometry" />
        </mxCell>
        <mxCell id="FyyPBsqEvOjFrn_GXzJg-125" value="" style="endArrow=none;html=1;rounded=0;entryX=0.5;entryY=0;entryDx=0;entryDy=0;exitX=0.5;exitY=1;exitDx=0;exitDy=0;" parent="1" source="FyyPBsqEvOjFrn_GXzJg-71" target="FyyPBsqEvOjFrn_GXzJg-124" edge="1">
          <mxGeometry width="50" height="50" relative="1" as="geometry">
            <mxPoint x="780" y="523" as="sourcePoint" />
            <mxPoint x="780" y="543.7106781186548" as="targetPoint" />
          </mxGeometry>
        </mxCell>
        <mxCell id="FyyPBsqEvOjFrn_GXzJg-126" value="" style="endArrow=none;html=1;rounded=0;entryX=0.5;entryY=0;entryDx=0;entryDy=0;exitX=0.5;exitY=1;exitDx=0;exitDy=0;" parent="1" source="FyyPBsqEvOjFrn_GXzJg-124" target="FyyPBsqEvOjFrn_GXzJg-109" edge="1">
          <mxGeometry width="50" height="50" relative="1" as="geometry">
            <mxPoint x="720" y="360" as="sourcePoint" />
            <mxPoint x="720" y="490" as="targetPoint" />
          </mxGeometry>
        </mxCell>
        <mxCell id="FyyPBsqEvOjFrn_GXzJg-127" value="1" style="text;html=1;align=center;verticalAlign=middle;resizable=0;points=[];autosize=1;strokeColor=none;fillColor=none;" parent="1" vertex="1">
          <mxGeometry x="715" y="358" width="30" height="30" as="geometry" />
        </mxCell>
        <mxCell id="FyyPBsqEvOjFrn_GXzJg-128" value="1" style="text;html=1;align=center;verticalAlign=middle;resizable=0;points=[];autosize=1;strokeColor=none;fillColor=none;" parent="1" vertex="1">
          <mxGeometry x="710" y="580" width="30" height="30" as="geometry" />
        </mxCell>
        <mxCell id="FyyPBsqEvOjFrn_GXzJg-131" value="Serve" style="rhombus;whiteSpace=wrap;html=1;" parent="1" vertex="1">
          <mxGeometry x="580" y="406.5" width="80" height="80" as="geometry" />
        </mxCell>
        <mxCell id="FyyPBsqEvOjFrn_GXzJg-132" value="1" style="text;html=1;align=center;verticalAlign=middle;resizable=0;points=[];autosize=1;strokeColor=none;fillColor=none;" parent="1" vertex="1">
          <mxGeometry x="625" y="340" width="30" height="30" as="geometry" />
        </mxCell>
        <mxCell id="FyyPBsqEvOjFrn_GXzJg-133" value="M" style="text;html=1;align=center;verticalAlign=middle;resizable=0;points=[];autosize=1;strokeColor=none;fillColor=none;" parent="1" vertex="1">
          <mxGeometry x="615" y="578" width="30" height="30" as="geometry" />
        </mxCell>
        <mxCell id="FyyPBsqEvOjFrn_GXzJg-134" value="" style="endArrow=none;html=1;rounded=0;exitX=0;exitY=0;exitDx=0;exitDy=0;entryX=0.5;entryY=1;entryDx=0;entryDy=0;" parent="1" source="FyyPBsqEvOjFrn_GXzJg-109" target="FyyPBsqEvOjFrn_GXzJg-131" edge="1">
          <mxGeometry width="50" height="50" relative="1" as="geometry">
            <mxPoint x="580" y="530" as="sourcePoint" />
            <mxPoint x="630" y="480" as="targetPoint" />
          </mxGeometry>
        </mxCell>
        <mxCell id="FyyPBsqEvOjFrn_GXzJg-135" value="" style="endArrow=none;html=1;rounded=0;exitX=0;exitY=1;exitDx=0;exitDy=0;entryX=0.5;entryY=0;entryDx=0;entryDy=0;" parent="1" source="FyyPBsqEvOjFrn_GXzJg-71" target="FyyPBsqEvOjFrn_GXzJg-131" edge="1">
          <mxGeometry width="50" height="50" relative="1" as="geometry">
            <mxPoint x="665" y="620" as="sourcePoint" />
            <mxPoint x="630" y="497" as="targetPoint" />
          </mxGeometry>
        </mxCell>
        <mxCell id="FyyPBsqEvOjFrn_GXzJg-136" value="Give" style="rhombus;whiteSpace=wrap;html=1;" parent="1" vertex="1">
          <mxGeometry x="840" y="495" width="80" height="80" as="geometry" />
        </mxCell>
        <mxCell id="FyyPBsqEvOjFrn_GXzJg-137" value="" style="endArrow=none;html=1;rounded=0;entryX=0;entryY=0.5;entryDx=0;entryDy=0;exitX=1;exitY=0.5;exitDx=0;exitDy=0;" parent="1" source="FyyPBsqEvOjFrn_GXzJg-109" target="FyyPBsqEvOjFrn_GXzJg-136" edge="1">
          <mxGeometry width="50" height="50" relative="1" as="geometry">
            <mxPoint x="770" y="610" as="sourcePoint" />
            <mxPoint x="820" y="560" as="targetPoint" />
          </mxGeometry>
        </mxCell>
        <mxCell id="FyyPBsqEvOjFrn_GXzJg-138" value="" style="endArrow=none;html=1;rounded=0;entryX=1;entryY=0.5;entryDx=0;entryDy=0;exitX=0;exitY=0.5;exitDx=0;exitDy=0;" parent="1" source="FyyPBsqEvOjFrn_GXzJg-116" target="FyyPBsqEvOjFrn_GXzJg-136" edge="1">
          <mxGeometry width="50" height="50" relative="1" as="geometry">
            <mxPoint x="930" y="600" as="sourcePoint" />
            <mxPoint x="850" y="545" as="targetPoint" />
          </mxGeometry>
        </mxCell>
        <mxCell id="FyyPBsqEvOjFrn_GXzJg-139" value="&lt;font style=&quot;font-size: 18px;&quot;&gt;Time&lt;/font&gt;" style="ellipse;whiteSpace=wrap;html=1;" parent="1" vertex="1">
          <mxGeometry x="800" y="598" width="60" height="42" as="geometry" />
        </mxCell>
        <mxCell id="FyyPBsqEvOjFrn_GXzJg-142" value="&lt;font style=&quot;font-size: 14px;&quot;&gt;Dosage&lt;span style=&quot;white-space: pre;&quot;&gt;&#x9;&lt;/span&gt;&lt;/font&gt;" style="ellipse;whiteSpace=wrap;html=1;" parent="1" vertex="1">
          <mxGeometry x="890" y="598" width="60" height="42" as="geometry" />
        </mxCell>
        <mxCell id="FyyPBsqEvOjFrn_GXzJg-143" value="&lt;font style=&quot;font-size: 18px;&quot;&gt;Date&lt;/font&gt;" style="ellipse;whiteSpace=wrap;html=1;" parent="1" vertex="1">
          <mxGeometry x="850" y="640" width="60" height="42" as="geometry" />
        </mxCell>
        <mxCell id="FyyPBsqEvOjFrn_GXzJg-144" value="" style="endArrow=none;html=1;rounded=0;exitX=0.5;exitY=0;exitDx=0;exitDy=0;entryX=0;entryY=1;entryDx=0;entryDy=0;" parent="1" source="FyyPBsqEvOjFrn_GXzJg-139" target="FyyPBsqEvOjFrn_GXzJg-136" edge="1">
          <mxGeometry width="50" height="50" relative="1" as="geometry">
            <mxPoint x="820" y="610" as="sourcePoint" />
            <mxPoint x="870" y="560" as="targetPoint" />
          </mxGeometry>
        </mxCell>
        <mxCell id="FyyPBsqEvOjFrn_GXzJg-145" value="" style="endArrow=none;html=1;rounded=0;entryX=0.5;entryY=1;entryDx=0;entryDy=0;exitX=0.5;exitY=0;exitDx=0;exitDy=0;" parent="1" source="FyyPBsqEvOjFrn_GXzJg-143" target="FyyPBsqEvOjFrn_GXzJg-136" edge="1">
          <mxGeometry width="50" height="50" relative="1" as="geometry">
            <mxPoint x="950" y="570" as="sourcePoint" />
            <mxPoint x="1000" y="520" as="targetPoint" />
          </mxGeometry>
        </mxCell>
        <mxCell id="FyyPBsqEvOjFrn_GXzJg-146" value="" style="endArrow=none;html=1;rounded=0;entryX=1;entryY=1;entryDx=0;entryDy=0;exitX=0.5;exitY=0;exitDx=0;exitDy=0;" parent="1" source="FyyPBsqEvOjFrn_GXzJg-142" target="FyyPBsqEvOjFrn_GXzJg-136" edge="1">
          <mxGeometry width="50" height="50" relative="1" as="geometry">
            <mxPoint x="890" y="650" as="sourcePoint" />
            <mxPoint x="890" y="585" as="targetPoint" />
          </mxGeometry>
        </mxCell>
        <mxCell id="FyyPBsqEvOjFrn_GXzJg-147" value="" style="endArrow=none;html=1;rounded=0;" parent="1" edge="1">
          <mxGeometry width="50" height="50" relative="1" as="geometry">
            <mxPoint x="880" y="500" as="sourcePoint" />
            <mxPoint x="1040" y="330" as="targetPoint" />
          </mxGeometry>
        </mxCell>
        <mxCell id="FyyPBsqEvOjFrn_GXzJg-149" value="" style="endArrow=none;html=1;rounded=0;exitX=0.25;exitY=0;exitDx=0;exitDy=0;entryX=1;entryY=1;entryDx=0;entryDy=0;" parent="1" source="FyyPBsqEvOjFrn_GXzJg-109" target="FyyPBsqEvOjFrn_GXzJg-131" edge="1">
          <mxGeometry width="50" height="50" relative="1" as="geometry">
            <mxPoint x="665" y="620" as="sourcePoint" />
            <mxPoint x="630" y="497" as="targetPoint" />
          </mxGeometry>
        </mxCell>
        <mxCell id="FyyPBsqEvOjFrn_GXzJg-151" value="" style="endArrow=none;html=1;rounded=0;entryX=0.5;entryY=0;entryDx=0;entryDy=0;exitX=0.5;exitY=1;exitDx=0;exitDy=0;" parent="1" edge="1">
          <mxGeometry width="50" height="50" relative="1" as="geometry">
            <mxPoint x="720" y="360" as="sourcePoint" />
            <mxPoint x="720" y="490" as="targetPoint" />
          </mxGeometry>
        </mxCell>
        <mxCell id="FyyPBsqEvOjFrn_GXzJg-153" value="&lt;font style=&quot;font-size: 18px;&quot;&gt;Airline&lt;/font&gt;" style="rounded=0;whiteSpace=wrap;html=1;" parent="1" vertex="1">
          <mxGeometry x="1670" y="225" width="120" height="60" as="geometry" />
        </mxCell>
        <mxCell id="FyyPBsqEvOjFrn_GXzJg-154" value="&lt;font style=&quot;font-size: 18px;&quot;&gt;ID&lt;/font&gt;" style="ellipse;whiteSpace=wrap;html=1;" parent="1" vertex="1">
          <mxGeometry x="1570" y="74" width="90" height="48" as="geometry" />
        </mxCell>
        <mxCell id="FyyPBsqEvOjFrn_GXzJg-156" value="" style="endArrow=none;html=1;rounded=0;exitX=0.5;exitY=1;exitDx=0;exitDy=0;entryX=0.25;entryY=0;entryDx=0;entryDy=0;" parent="1" source="FyyPBsqEvOjFrn_GXzJg-154" target="FyyPBsqEvOjFrn_GXzJg-153" edge="1">
          <mxGeometry width="50" height="50" relative="1" as="geometry">
            <mxPoint x="1620" y="330" as="sourcePoint" />
            <mxPoint x="1670" y="280" as="targetPoint" />
          </mxGeometry>
        </mxCell>
        <mxCell id="FyyPBsqEvOjFrn_GXzJg-157" value="&lt;font style=&quot;font-size: 18px;&quot;&gt;Name&lt;/font&gt;" style="ellipse;whiteSpace=wrap;html=1;" parent="1" vertex="1">
          <mxGeometry x="1500" y="252" width="90" height="48" as="geometry" />
        </mxCell>
        <mxCell id="FyyPBsqEvOjFrn_GXzJg-158" value="&lt;font style=&quot;font-size: 18px;&quot;&gt;Address&lt;/font&gt;" style="ellipse;whiteSpace=wrap;html=1;" parent="1" vertex="1">
          <mxGeometry x="1810" y="82" width="90" height="48" as="geometry" />
        </mxCell>
        <mxCell id="FyyPBsqEvOjFrn_GXzJg-159" value="" style="ellipse;whiteSpace=wrap;html=1;" parent="1" vertex="1">
          <mxGeometry x="1540" y="170" width="90" height="55" as="geometry" />
        </mxCell>
        <mxCell id="FyyPBsqEvOjFrn_GXzJg-160" value="T_Num" style="ellipse;whiteSpace=wrap;html=1;" parent="1" vertex="1">
          <mxGeometry x="1547.5" y="172" width="75" height="51" as="geometry" />
        </mxCell>
        <mxCell id="FyyPBsqEvOjFrn_GXzJg-162" value="&lt;font style=&quot;font-size: 18px;&quot;&gt;Contact&lt;/font&gt;" style="ellipse;whiteSpace=wrap;html=1;" parent="1" vertex="1">
          <mxGeometry x="1660" y="108" width="90" height="48" as="geometry" />
        </mxCell>
        <mxCell id="FyyPBsqEvOjFrn_GXzJg-163" value="" style="endArrow=none;html=1;rounded=0;exitX=0.5;exitY=0;exitDx=0;exitDy=0;" parent="1" source="FyyPBsqEvOjFrn_GXzJg-153" edge="1">
          <mxGeometry width="50" height="50" relative="1" as="geometry">
            <mxPoint x="1680" y="210" as="sourcePoint" />
            <mxPoint x="1730" y="160" as="targetPoint" />
          </mxGeometry>
        </mxCell>
        <mxCell id="FyyPBsqEvOjFrn_GXzJg-164" value="" style="endArrow=none;html=1;rounded=0;exitX=0;exitY=0;exitDx=0;exitDy=0;entryX=1.073;entryY=0.691;entryDx=0;entryDy=0;entryPerimeter=0;" parent="1" source="FyyPBsqEvOjFrn_GXzJg-153" target="FyyPBsqEvOjFrn_GXzJg-160" edge="1">
          <mxGeometry width="50" height="50" relative="1" as="geometry">
            <mxPoint x="1740" y="235" as="sourcePoint" />
            <mxPoint x="1740" y="170" as="targetPoint" />
          </mxGeometry>
        </mxCell>
        <mxCell id="FyyPBsqEvOjFrn_GXzJg-165" value="" style="endArrow=none;html=1;rounded=0;exitX=0.5;exitY=0;exitDx=0;exitDy=0;entryX=0;entryY=1;entryDx=0;entryDy=0;" parent="1" source="FyyPBsqEvOjFrn_GXzJg-157" target="FyyPBsqEvOjFrn_GXzJg-153" edge="1">
          <mxGeometry width="50" height="50" relative="1" as="geometry">
            <mxPoint x="1680" y="330" as="sourcePoint" />
            <mxPoint x="1715" y="290" as="targetPoint" />
          </mxGeometry>
        </mxCell>
        <mxCell id="FyyPBsqEvOjFrn_GXzJg-166" value="" style="endArrow=none;html=1;rounded=0;exitX=0.5;exitY=1;exitDx=0;exitDy=0;entryX=1;entryY=0;entryDx=0;entryDy=0;" parent="1" source="FyyPBsqEvOjFrn_GXzJg-158" target="FyyPBsqEvOjFrn_GXzJg-153" edge="1">
          <mxGeometry width="50" height="50" relative="1" as="geometry">
            <mxPoint x="1725" y="388" as="sourcePoint" />
            <mxPoint x="1730" y="290" as="targetPoint" />
          </mxGeometry>
        </mxCell>
        <mxCell id="FyyPBsqEvOjFrn_GXzJg-167" value="&lt;font style=&quot;font-size: 18px;&quot;&gt;Employee&lt;/font&gt;" style="rounded=0;whiteSpace=wrap;html=1;" parent="1" vertex="1">
          <mxGeometry x="2100" y="230" width="120" height="60" as="geometry" />
        </mxCell>
        <mxCell id="FyyPBsqEvOjFrn_GXzJg-168" value="&lt;font style=&quot;font-size: 18px;&quot;&gt;ID&lt;/font&gt;" style="ellipse;whiteSpace=wrap;html=1;" parent="1" vertex="1">
          <mxGeometry x="1950" y="120" width="90" height="48" as="geometry" />
        </mxCell>
        <mxCell id="FyyPBsqEvOjFrn_GXzJg-169" value="&lt;font style=&quot;font-size: 18px;&quot;&gt;Name&lt;/font&gt;" style="ellipse;whiteSpace=wrap;html=1;" parent="1" vertex="1">
          <mxGeometry x="2060" y="120" width="90" height="48" as="geometry" />
        </mxCell>
        <mxCell id="FyyPBsqEvOjFrn_GXzJg-170" value="&lt;font style=&quot;font-size: 18px;&quot;&gt;Address&lt;/font&gt;" style="ellipse;whiteSpace=wrap;html=1;" parent="1" vertex="1">
          <mxGeometry x="2170" y="122" width="90" height="48" as="geometry" />
        </mxCell>
        <mxCell id="FyyPBsqEvOjFrn_GXzJg-172" value="&lt;font style=&quot;font-size: 18px;&quot;&gt;BD&lt;/font&gt;" style="ellipse;whiteSpace=wrap;html=1;" parent="1" vertex="1">
          <mxGeometry x="2270" y="130" width="90" height="48" as="geometry" />
        </mxCell>
        <mxCell id="FyyPBsqEvOjFrn_GXzJg-174" value="&lt;font style=&quot;font-size: 18px;&quot;&gt;Day&lt;/font&gt;" style="ellipse;whiteSpace=wrap;html=1;" parent="1" vertex="1">
          <mxGeometry x="2240" y="20" width="90" height="48" as="geometry" />
        </mxCell>
        <mxCell id="FyyPBsqEvOjFrn_GXzJg-175" value="&lt;font style=&quot;font-size: 18px;&quot;&gt;Month&lt;/font&gt;" style="ellipse;whiteSpace=wrap;html=1;" parent="1" vertex="1">
          <mxGeometry x="2360" y="20" width="90" height="48" as="geometry" />
        </mxCell>
        <mxCell id="FyyPBsqEvOjFrn_GXzJg-176" value="&lt;font style=&quot;font-size: 18px;&quot;&gt;Year&lt;/font&gt;" style="ellipse;whiteSpace=wrap;html=1;" parent="1" vertex="1">
          <mxGeometry x="2470" y="20" width="90" height="48" as="geometry" />
        </mxCell>
        <mxCell id="FyyPBsqEvOjFrn_GXzJg-177" value="" style="endArrow=none;html=1;rounded=0;exitX=0.5;exitY=0;exitDx=0;exitDy=0;" parent="1" source="FyyPBsqEvOjFrn_GXzJg-172" edge="1">
          <mxGeometry width="50" height="50" relative="1" as="geometry">
            <mxPoint x="2240" y="120" as="sourcePoint" />
            <mxPoint x="2290" y="70" as="targetPoint" />
          </mxGeometry>
        </mxCell>
        <mxCell id="FyyPBsqEvOjFrn_GXzJg-178" value="" style="endArrow=none;html=1;rounded=0;entryX=0.5;entryY=1;entryDx=0;entryDy=0;" parent="1" target="FyyPBsqEvOjFrn_GXzJg-175" edge="1">
          <mxGeometry width="50" height="50" relative="1" as="geometry">
            <mxPoint x="2330" y="130" as="sourcePoint" />
            <mxPoint x="2300" y="80" as="targetPoint" />
          </mxGeometry>
        </mxCell>
        <mxCell id="FyyPBsqEvOjFrn_GXzJg-179" value="" style="endArrow=none;html=1;rounded=0;entryX=0.5;entryY=1;entryDx=0;entryDy=0;" parent="1" target="FyyPBsqEvOjFrn_GXzJg-176" edge="1">
          <mxGeometry width="50" height="50" relative="1" as="geometry">
            <mxPoint x="2340" y="140" as="sourcePoint" />
            <mxPoint x="2415" y="78" as="targetPoint" />
          </mxGeometry>
        </mxCell>
        <mxCell id="FyyPBsqEvOjFrn_GXzJg-180" value="" style="endArrow=none;html=1;rounded=0;exitX=0;exitY=0;exitDx=0;exitDy=0;" parent="1" source="FyyPBsqEvOjFrn_GXzJg-167" edge="1">
          <mxGeometry width="50" height="50" relative="1" as="geometry">
            <mxPoint x="1950" y="220" as="sourcePoint" />
            <mxPoint x="2000" y="170" as="targetPoint" />
          </mxGeometry>
        </mxCell>
        <mxCell id="FyyPBsqEvOjFrn_GXzJg-181" value="" style="endArrow=none;html=1;rounded=0;exitX=0.25;exitY=0;exitDx=0;exitDy=0;entryX=0.5;entryY=1;entryDx=0;entryDy=0;" parent="1" source="FyyPBsqEvOjFrn_GXzJg-167" target="FyyPBsqEvOjFrn_GXzJg-169" edge="1">
          <mxGeometry width="50" height="50" relative="1" as="geometry">
            <mxPoint x="2110" y="240" as="sourcePoint" />
            <mxPoint x="2010" y="180" as="targetPoint" />
          </mxGeometry>
        </mxCell>
        <mxCell id="FyyPBsqEvOjFrn_GXzJg-182" value="" style="endArrow=none;html=1;rounded=0;exitX=0.75;exitY=0;exitDx=0;exitDy=0;entryX=0.5;entryY=1;entryDx=0;entryDy=0;" parent="1" source="FyyPBsqEvOjFrn_GXzJg-167" target="FyyPBsqEvOjFrn_GXzJg-170" edge="1">
          <mxGeometry width="50" height="50" relative="1" as="geometry">
            <mxPoint x="2140" y="240" as="sourcePoint" />
            <mxPoint x="2115" y="178" as="targetPoint" />
          </mxGeometry>
        </mxCell>
        <mxCell id="FyyPBsqEvOjFrn_GXzJg-183" value="" style="endArrow=none;html=1;rounded=0;entryX=0.5;entryY=1;entryDx=0;entryDy=0;" parent="1" target="FyyPBsqEvOjFrn_GXzJg-172" edge="1">
          <mxGeometry width="50" height="50" relative="1" as="geometry">
            <mxPoint x="2220" y="230" as="sourcePoint" />
            <mxPoint x="2225" y="180" as="targetPoint" />
          </mxGeometry>
        </mxCell>
        <mxCell id="FyyPBsqEvOjFrn_GXzJg-184" value="" style="ellipse;whiteSpace=wrap;html=1;" parent="1" vertex="1">
          <mxGeometry x="2320" y="270" width="110" height="48" as="geometry" />
        </mxCell>
        <mxCell id="FyyPBsqEvOjFrn_GXzJg-185" value="Qualifivcations" style="ellipse;whiteSpace=wrap;html=1;" parent="1" vertex="1">
          <mxGeometry x="2327.5" y="275" width="95" height="38" as="geometry" />
        </mxCell>
        <mxCell id="FyyPBsqEvOjFrn_GXzJg-186" value="&lt;font style=&quot;font-size: 18px;&quot;&gt;Gender&lt;/font&gt;" style="ellipse;whiteSpace=wrap;html=1;" parent="1" vertex="1">
          <mxGeometry x="2300" y="207" width="90" height="48" as="geometry" />
        </mxCell>
        <mxCell id="FyyPBsqEvOjFrn_GXzJg-189" value="&lt;font style=&quot;font-size: 18px;&quot;&gt;Gender&lt;/font&gt;" style="ellipse;whiteSpace=wrap;html=1;" parent="1" vertex="1">
          <mxGeometry x="2210" y="358" width="90" height="48" as="geometry" />
        </mxCell>
        <mxCell id="FyyPBsqEvOjFrn_GXzJg-191" value="" style="endArrow=none;html=1;rounded=0;entryX=0;entryY=0.5;entryDx=0;entryDy=0;exitX=1;exitY=0.25;exitDx=0;exitDy=0;" parent="1" source="FyyPBsqEvOjFrn_GXzJg-167" target="FyyPBsqEvOjFrn_GXzJg-186" edge="1">
          <mxGeometry width="50" height="50" relative="1" as="geometry">
            <mxPoint x="2220" y="270" as="sourcePoint" />
            <mxPoint x="2270" y="220" as="targetPoint" />
          </mxGeometry>
        </mxCell>
        <mxCell id="FyyPBsqEvOjFrn_GXzJg-192" value="" style="endArrow=none;html=1;rounded=0;entryX=0;entryY=0.5;entryDx=0;entryDy=0;exitX=1;exitY=0.5;exitDx=0;exitDy=0;" parent="1" source="FyyPBsqEvOjFrn_GXzJg-167" target="FyyPBsqEvOjFrn_GXzJg-184" edge="1">
          <mxGeometry width="50" height="50" relative="1" as="geometry">
            <mxPoint x="2230" y="255" as="sourcePoint" />
            <mxPoint x="2310" y="241" as="targetPoint" />
          </mxGeometry>
        </mxCell>
        <mxCell id="FyyPBsqEvOjFrn_GXzJg-193" value="" style="endArrow=none;html=1;rounded=0;entryX=0.5;entryY=0;entryDx=0;entryDy=0;exitX=1;exitY=1;exitDx=0;exitDy=0;" parent="1" source="FyyPBsqEvOjFrn_GXzJg-167" target="FyyPBsqEvOjFrn_GXzJg-189" edge="1">
          <mxGeometry width="50" height="50" relative="1" as="geometry">
            <mxPoint x="2230" y="270" as="sourcePoint" />
            <mxPoint x="2330" y="304" as="targetPoint" />
          </mxGeometry>
        </mxCell>
        <mxCell id="FyyPBsqEvOjFrn_GXzJg-194" value="&lt;font style=&quot;font-size: 18px;&quot;&gt;Works&lt;/font&gt;" style="rhombus;whiteSpace=wrap;html=1;" parent="1" vertex="1">
          <mxGeometry x="1900" y="220" width="80" height="80" as="geometry" />
        </mxCell>
        <mxCell id="FyyPBsqEvOjFrn_GXzJg-195" value="" style="endArrow=none;html=1;rounded=0;entryX=0;entryY=0.5;entryDx=0;entryDy=0;" parent="1" target="FyyPBsqEvOjFrn_GXzJg-194" edge="1">
          <mxGeometry width="50" height="50" relative="1" as="geometry">
            <mxPoint x="1790" y="260" as="sourcePoint" />
            <mxPoint x="1840" y="210" as="targetPoint" />
          </mxGeometry>
        </mxCell>
        <mxCell id="FyyPBsqEvOjFrn_GXzJg-196" value="" style="endArrow=none;html=1;rounded=0;entryX=0;entryY=0.5;entryDx=0;entryDy=0;exitX=1;exitY=0.5;exitDx=0;exitDy=0;" parent="1" source="FyyPBsqEvOjFrn_GXzJg-194" target="FyyPBsqEvOjFrn_GXzJg-167" edge="1">
          <mxGeometry width="50" height="50" relative="1" as="geometry">
            <mxPoint x="1800" y="270" as="sourcePoint" />
            <mxPoint x="1910" y="270" as="targetPoint" />
          </mxGeometry>
        </mxCell>
        <mxCell id="FyyPBsqEvOjFrn_GXzJg-197" value="1" style="text;html=1;align=center;verticalAlign=middle;resizable=0;points=[];autosize=1;strokeColor=none;fillColor=none;" parent="1" vertex="1">
          <mxGeometry x="1805" y="238" width="30" height="30" as="geometry" />
        </mxCell>
        <mxCell id="FyyPBsqEvOjFrn_GXzJg-198" value="M" style="text;html=1;align=center;verticalAlign=middle;resizable=0;points=[];autosize=1;strokeColor=none;fillColor=none;" parent="1" vertex="1">
          <mxGeometry x="2065" y="238" width="30" height="30" as="geometry" />
        </mxCell>
        <mxCell id="FyyPBsqEvOjFrn_GXzJg-199" value="&lt;font style=&quot;font-size: 18px;&quot;&gt;Aircraft&lt;/font&gt;" style="rounded=0;whiteSpace=wrap;html=1;" parent="1" vertex="1">
          <mxGeometry x="1670" y="538" width="120" height="60" as="geometry" />
        </mxCell>
        <mxCell id="FyyPBsqEvOjFrn_GXzJg-200" value="Owns" style="rhombus;whiteSpace=wrap;html=1;" parent="1" vertex="1">
          <mxGeometry x="1685" y="378" width="80" height="80" as="geometry" />
        </mxCell>
        <mxCell id="FyyPBsqEvOjFrn_GXzJg-201" value="" style="endArrow=none;html=1;rounded=0;exitX=0.5;exitY=0;exitDx=0;exitDy=0;" parent="1" source="FyyPBsqEvOjFrn_GXzJg-200" edge="1">
          <mxGeometry width="50" height="50" relative="1" as="geometry">
            <mxPoint x="1680" y="330" as="sourcePoint" />
            <mxPoint x="1730" y="290" as="targetPoint" />
          </mxGeometry>
        </mxCell>
        <mxCell id="FyyPBsqEvOjFrn_GXzJg-202" value="" style="endArrow=none;html=1;rounded=0;exitX=0.5;exitY=0;exitDx=0;exitDy=0;entryX=0.5;entryY=1;entryDx=0;entryDy=0;" parent="1" source="FyyPBsqEvOjFrn_GXzJg-199" target="FyyPBsqEvOjFrn_GXzJg-200" edge="1">
          <mxGeometry width="50" height="50" relative="1" as="geometry">
            <mxPoint x="1735" y="388" as="sourcePoint" />
            <mxPoint x="1740" y="300" as="targetPoint" />
          </mxGeometry>
        </mxCell>
        <mxCell id="FyyPBsqEvOjFrn_GXzJg-204" value="&lt;font style=&quot;font-size: 18px;&quot;&gt;ID&lt;/font&gt;" style="ellipse;whiteSpace=wrap;html=1;" parent="1" vertex="1">
          <mxGeometry x="1520" y="622" width="90" height="48" as="geometry" />
        </mxCell>
        <mxCell id="FyyPBsqEvOjFrn_GXzJg-205" value="&lt;font style=&quot;font-size: 18px;&quot;&gt;Capacity&lt;/font&gt;" style="ellipse;whiteSpace=wrap;html=1;" parent="1" vertex="1">
          <mxGeometry x="1630" y="628" width="90" height="48" as="geometry" />
        </mxCell>
        <mxCell id="FyyPBsqEvOjFrn_GXzJg-206" value="&lt;font style=&quot;font-size: 18px;&quot;&gt;Model&lt;/font&gt;" style="ellipse;whiteSpace=wrap;html=1;" parent="1" vertex="1">
          <mxGeometry x="1750" y="634" width="90" height="48" as="geometry" />
        </mxCell>
        <mxCell id="FyyPBsqEvOjFrn_GXzJg-207" value="M" style="text;html=1;align=center;verticalAlign=middle;resizable=0;points=[];autosize=1;strokeColor=none;fillColor=none;" parent="1" vertex="1">
          <mxGeometry x="1735" y="505" width="30" height="30" as="geometry" />
        </mxCell>
        <mxCell id="FyyPBsqEvOjFrn_GXzJg-208" value="1" style="text;html=1;align=center;verticalAlign=middle;resizable=0;points=[];autosize=1;strokeColor=none;fillColor=none;" parent="1" vertex="1">
          <mxGeometry x="1735" y="298" width="30" height="30" as="geometry" />
        </mxCell>
        <mxCell id="FyyPBsqEvOjFrn_GXzJg-209" value="" style="endArrow=none;html=1;rounded=0;exitX=0.5;exitY=0;exitDx=0;exitDy=0;entryX=0.65;entryY=0.903;entryDx=0;entryDy=0;entryPerimeter=0;" parent="1" target="FyyPBsqEvOjFrn_GXzJg-200" edge="1">
          <mxGeometry width="50" height="50" relative="1" as="geometry">
            <mxPoint x="1740" y="548" as="sourcePoint" />
            <mxPoint x="1735" y="468" as="targetPoint" />
          </mxGeometry>
        </mxCell>
        <mxCell id="FyyPBsqEvOjFrn_GXzJg-210" value="" style="endArrow=none;html=1;rounded=0;entryX=0;entryY=1;entryDx=0;entryDy=0;" parent="1" target="FyyPBsqEvOjFrn_GXzJg-199" edge="1">
          <mxGeometry width="50" height="50" relative="1" as="geometry">
            <mxPoint x="1570" y="620" as="sourcePoint" />
            <mxPoint x="1760" y="390" as="targetPoint" />
          </mxGeometry>
        </mxCell>
        <mxCell id="FyyPBsqEvOjFrn_GXzJg-211" value="" style="endArrow=none;html=1;rounded=0;entryX=0.5;entryY=1;entryDx=0;entryDy=0;exitX=0.5;exitY=0;exitDx=0;exitDy=0;" parent="1" source="FyyPBsqEvOjFrn_GXzJg-205" target="FyyPBsqEvOjFrn_GXzJg-199" edge="1">
          <mxGeometry width="50" height="50" relative="1" as="geometry">
            <mxPoint x="1580" y="630" as="sourcePoint" />
            <mxPoint x="1680" y="608" as="targetPoint" />
          </mxGeometry>
        </mxCell>
        <mxCell id="FyyPBsqEvOjFrn_GXzJg-212" value="" style="endArrow=none;html=1;rounded=0;entryX=1;entryY=1;entryDx=0;entryDy=0;exitX=0.5;exitY=0;exitDx=0;exitDy=0;" parent="1" source="FyyPBsqEvOjFrn_GXzJg-206" target="FyyPBsqEvOjFrn_GXzJg-199" edge="1">
          <mxGeometry width="50" height="50" relative="1" as="geometry">
            <mxPoint x="1685" y="638" as="sourcePoint" />
            <mxPoint x="1740" y="608" as="targetPoint" />
          </mxGeometry>
        </mxCell>
        <mxCell id="FyyPBsqEvOjFrn_GXzJg-213" value="&lt;font style=&quot;font-size: 18px;&quot;&gt;Route&lt;/font&gt;" style="rounded=0;whiteSpace=wrap;html=1;" parent="1" vertex="1">
          <mxGeometry x="2110" y="538" width="120" height="60" as="geometry" />
        </mxCell>
        <mxCell id="FyyPBsqEvOjFrn_GXzJg-214" value="&lt;font style=&quot;font-size: 18px;&quot;&gt;Price&lt;/font&gt;" style="ellipse;whiteSpace=wrap;html=1;" parent="1" vertex="1">
          <mxGeometry x="1880" y="429" width="90" height="48" as="geometry" />
        </mxCell>
        <mxCell id="FyyPBsqEvOjFrn_GXzJg-215" value="&lt;font style=&quot;font-size: 18px;&quot;&gt;Origin&lt;/font&gt;" style="ellipse;whiteSpace=wrap;html=1;" parent="1" vertex="1">
          <mxGeometry x="2130" y="642" width="90" height="48" as="geometry" />
        </mxCell>
        <mxCell id="FyyPBsqEvOjFrn_GXzJg-216" value="&lt;font style=&quot;font-size: 18px;&quot;&gt;Destination&lt;/font&gt;" style="ellipse;whiteSpace=wrap;html=1;" parent="1" vertex="1">
          <mxGeometry x="2240" y="642" width="90" height="48" as="geometry" />
        </mxCell>
        <mxCell id="FyyPBsqEvOjFrn_GXzJg-217" value="&lt;font style=&quot;font-size: 18px;&quot;&gt;Distance&lt;/font&gt;" style="ellipse;whiteSpace=wrap;html=1;" parent="1" vertex="1">
          <mxGeometry x="2320" y="560" width="90" height="48" as="geometry" />
        </mxCell>
        <mxCell id="FyyPBsqEvOjFrn_GXzJg-218" value="&lt;font style=&quot;font-size: 18px;&quot;&gt;Class&lt;/font&gt;" style="ellipse;whiteSpace=wrap;html=1;" parent="1" vertex="1">
          <mxGeometry x="2280" y="487" width="90" height="48" as="geometry" />
        </mxCell>
        <mxCell id="FyyPBsqEvOjFrn_GXzJg-219" value="" style="endArrow=none;html=1;rounded=0;entryX=1;entryY=1;entryDx=0;entryDy=0;" parent="1" target="FyyPBsqEvOjFrn_GXzJg-224" edge="1">
          <mxGeometry width="50" height="50" relative="1" as="geometry">
            <mxPoint x="2050" y="660" as="sourcePoint" />
            <mxPoint x="2040" y="620" as="targetPoint" />
          </mxGeometry>
        </mxCell>
        <mxCell id="FyyPBsqEvOjFrn_GXzJg-220" value="" style="endArrow=none;html=1;rounded=0;exitX=0.5;exitY=0;exitDx=0;exitDy=0;" parent="1" source="FyyPBsqEvOjFrn_GXzJg-215" edge="1">
          <mxGeometry width="50" height="50" relative="1" as="geometry">
            <mxPoint x="2070" y="650" as="sourcePoint" />
            <mxPoint x="2120" y="600" as="targetPoint" />
          </mxGeometry>
        </mxCell>
        <mxCell id="FyyPBsqEvOjFrn_GXzJg-221" value="" style="endArrow=none;html=1;rounded=0;exitX=0.5;exitY=0;exitDx=0;exitDy=0;entryX=1;entryY=1;entryDx=0;entryDy=0;" parent="1" source="FyyPBsqEvOjFrn_GXzJg-216" target="FyyPBsqEvOjFrn_GXzJg-213" edge="1">
          <mxGeometry width="50" height="50" relative="1" as="geometry">
            <mxPoint x="2185" y="652" as="sourcePoint" />
            <mxPoint x="2130" y="610" as="targetPoint" />
          </mxGeometry>
        </mxCell>
        <mxCell id="FyyPBsqEvOjFrn_GXzJg-222" value="" style="endArrow=none;html=1;rounded=0;exitX=0;exitY=0.5;exitDx=0;exitDy=0;entryX=1;entryY=0.5;entryDx=0;entryDy=0;" parent="1" source="FyyPBsqEvOjFrn_GXzJg-217" target="FyyPBsqEvOjFrn_GXzJg-213" edge="1">
          <mxGeometry width="50" height="50" relative="1" as="geometry">
            <mxPoint x="2295" y="652" as="sourcePoint" />
            <mxPoint x="2240" y="608" as="targetPoint" />
          </mxGeometry>
        </mxCell>
        <mxCell id="FyyPBsqEvOjFrn_GXzJg-223" value="" style="endArrow=none;html=1;rounded=0;exitX=0;exitY=0.5;exitDx=0;exitDy=0;entryX=1;entryY=0;entryDx=0;entryDy=0;" parent="1" source="FyyPBsqEvOjFrn_GXzJg-218" target="FyyPBsqEvOjFrn_GXzJg-213" edge="1">
          <mxGeometry width="50" height="50" relative="1" as="geometry">
            <mxPoint x="2330" y="594" as="sourcePoint" />
            <mxPoint x="2240" y="578" as="targetPoint" />
          </mxGeometry>
        </mxCell>
        <mxCell id="FyyPBsqEvOjFrn_GXzJg-224" value="Assign" style="rhombus;whiteSpace=wrap;html=1;" parent="1" vertex="1">
          <mxGeometry x="1910" y="535" width="80" height="80" as="geometry" />
        </mxCell>
        <mxCell id="FyyPBsqEvOjFrn_GXzJg-225" value="" style="endArrow=none;html=1;rounded=0;entryX=0;entryY=0.5;entryDx=0;entryDy=0;" parent="1" target="FyyPBsqEvOjFrn_GXzJg-224" edge="1">
          <mxGeometry width="50" height="50" relative="1" as="geometry">
            <mxPoint x="1790" y="570" as="sourcePoint" />
            <mxPoint x="1840" y="520" as="targetPoint" />
          </mxGeometry>
        </mxCell>
        <mxCell id="FyyPBsqEvOjFrn_GXzJg-226" value="M" style="text;html=1;align=center;verticalAlign=middle;resizable=0;points=[];autosize=1;strokeColor=none;fillColor=none;" parent="1" vertex="1">
          <mxGeometry x="1805" y="538" width="30" height="30" as="geometry" />
        </mxCell>
        <mxCell id="FyyPBsqEvOjFrn_GXzJg-227" value="" style="endArrow=none;html=1;rounded=0;entryX=0;entryY=0.5;entryDx=0;entryDy=0;exitX=1;exitY=0.5;exitDx=0;exitDy=0;" parent="1" source="FyyPBsqEvOjFrn_GXzJg-224" target="FyyPBsqEvOjFrn_GXzJg-213" edge="1">
          <mxGeometry width="50" height="50" relative="1" as="geometry">
            <mxPoint x="1800" y="580" as="sourcePoint" />
            <mxPoint x="1920" y="585" as="targetPoint" />
          </mxGeometry>
        </mxCell>
        <mxCell id="FyyPBsqEvOjFrn_GXzJg-228" value="M" style="text;html=1;align=center;verticalAlign=middle;resizable=0;points=[];autosize=1;strokeColor=none;fillColor=none;" parent="1" vertex="1">
          <mxGeometry x="2065" y="538" width="30" height="30" as="geometry" />
        </mxCell>
        <mxCell id="FyyPBsqEvOjFrn_GXzJg-230" value="&lt;font style=&quot;font-size: 18px;&quot;&gt;Departure&lt;/font&gt;" style="ellipse;whiteSpace=wrap;html=1;" parent="1" vertex="1">
          <mxGeometry x="1980" y="430" width="90" height="48" as="geometry" />
        </mxCell>
        <mxCell id="FyyPBsqEvOjFrn_GXzJg-231" value="&lt;font style=&quot;font-size: 18px;&quot;&gt;N_PASS&lt;/font&gt;" style="ellipse;whiteSpace=wrap;html=1;" parent="1" vertex="1">
          <mxGeometry x="1890" y="670" width="90" height="48" as="geometry" />
        </mxCell>
        <mxCell id="FyyPBsqEvOjFrn_GXzJg-232" value="&lt;font style=&quot;font-size: 18px;&quot;&gt;Date&lt;/font&gt;" style="ellipse;whiteSpace=wrap;html=1;" parent="1" vertex="1">
          <mxGeometry x="2080" y="423" width="90" height="48" as="geometry" />
        </mxCell>
        <mxCell id="FyyPBsqEvOjFrn_GXzJg-233" value="&lt;font style=&quot;font-size: 18px;&quot;&gt;Spend_T&lt;/font&gt;" style="ellipse;whiteSpace=wrap;html=1;" parent="1" vertex="1">
          <mxGeometry x="2010" y="669" width="90" height="41" as="geometry" />
        </mxCell>
        <mxCell id="FyyPBsqEvOjFrn_GXzJg-234" value="" style="endArrow=none;html=1;rounded=0;entryX=0.5;entryY=1;entryDx=0;entryDy=0;exitX=0.5;exitY=0;exitDx=0;exitDy=0;" parent="1" source="FyyPBsqEvOjFrn_GXzJg-231" target="FyyPBsqEvOjFrn_GXzJg-224" edge="1">
          <mxGeometry width="50" height="50" relative="1" as="geometry">
            <mxPoint x="2060" y="670" as="sourcePoint" />
            <mxPoint x="1980" y="605" as="targetPoint" />
          </mxGeometry>
        </mxCell>
        <mxCell id="FyyPBsqEvOjFrn_GXzJg-235" value="" style="endArrow=none;html=1;rounded=0;entryX=0.5;entryY=1;entryDx=0;entryDy=0;exitX=0.5;exitY=0;exitDx=0;exitDy=0;" parent="1" source="FyyPBsqEvOjFrn_GXzJg-224" target="FyyPBsqEvOjFrn_GXzJg-214" edge="1">
          <mxGeometry width="50" height="50" relative="1" as="geometry">
            <mxPoint x="1945" y="680" as="sourcePoint" />
            <mxPoint x="1960" y="625" as="targetPoint" />
          </mxGeometry>
        </mxCell>
        <mxCell id="FyyPBsqEvOjFrn_GXzJg-236" value="" style="endArrow=none;html=1;rounded=0;entryX=0.5;entryY=1;entryDx=0;entryDy=0;exitX=0.5;exitY=0;exitDx=0;exitDy=0;" parent="1" target="FyyPBsqEvOjFrn_GXzJg-230" edge="1">
          <mxGeometry width="50" height="50" relative="1" as="geometry">
            <mxPoint x="1960" y="545" as="sourcePoint" />
            <mxPoint x="1935" y="487" as="targetPoint" />
          </mxGeometry>
        </mxCell>
        <mxCell id="FyyPBsqEvOjFrn_GXzJg-237" value="" style="endArrow=none;html=1;rounded=0;entryX=0;entryY=1;entryDx=0;entryDy=0;exitX=0.5;exitY=0;exitDx=0;exitDy=0;" parent="1" target="FyyPBsqEvOjFrn_GXzJg-232" edge="1">
          <mxGeometry width="50" height="50" relative="1" as="geometry">
            <mxPoint x="1970" y="555" as="sourcePoint" />
            <mxPoint x="2035" y="488" as="targetPoint" />
          </mxGeometry>
        </mxCell>
        <mxCell id="FyyPBsqEvOjFrn_GXzJg-238" value="&lt;font style=&quot;font-size: 18px;&quot;&gt;Crew&lt;/font&gt;" style="rounded=0;whiteSpace=wrap;html=1;" parent="1" vertex="1">
          <mxGeometry x="1710" y="800" width="120" height="60" as="geometry" />
        </mxCell>
        <mxCell id="FyyPBsqEvOjFrn_GXzJg-239" value="&lt;font style=&quot;font-size: 18px;&quot;&gt;Crew&lt;/font&gt;" style="rounded=0;whiteSpace=wrap;html=1;" parent="1" vertex="1">
          <mxGeometry x="1720" y="805" width="100" height="50" as="geometry" />
        </mxCell>
        <mxCell id="FyyPBsqEvOjFrn_GXzJg-241" value="&lt;font style=&quot;font-size: 18px;&quot;&gt;Major_P&lt;/font&gt;" style="ellipse;whiteSpace=wrap;html=1;" parent="1" vertex="1">
          <mxGeometry x="1595" y="920" width="90" height="48" as="geometry" />
        </mxCell>
        <mxCell id="FyyPBsqEvOjFrn_GXzJg-242" value="&lt;font style=&quot;font-size: 18px;&quot;&gt;ID&lt;/font&gt;" style="ellipse;whiteSpace=wrap;html=1;" parent="1" vertex="1">
          <mxGeometry x="1710" y="918" width="90" height="50" as="geometry" />
        </mxCell>
        <mxCell id="FyyPBsqEvOjFrn_GXzJg-243" value="&lt;font style=&quot;font-size: 18px;&quot;&gt;Assistant&lt;/font&gt;" style="ellipse;whiteSpace=wrap;html=1;" parent="1" vertex="1">
          <mxGeometry x="1835" y="918" width="90" height="50" as="geometry" />
        </mxCell>
        <mxCell id="FyyPBsqEvOjFrn_GXzJg-244" value="&lt;font style=&quot;font-size: 18px;&quot;&gt;Hosts&lt;/font&gt;" style="ellipse;whiteSpace=wrap;html=1;" parent="1" vertex="1">
          <mxGeometry x="1895" y="840" width="90" height="50" as="geometry" />
        </mxCell>
        <mxCell id="FyyPBsqEvOjFrn_GXzJg-245" value="Has" style="rhombus;whiteSpace=wrap;html=1;" parent="1" vertex="1">
          <mxGeometry x="1710" y="696.5" width="80" height="80" as="geometry" />
        </mxCell>
        <mxCell id="FyyPBsqEvOjFrn_GXzJg-246" value="" style="endArrow=none;html=1;rounded=0;exitX=0.35;exitY=-0.115;exitDx=0;exitDy=0;exitPerimeter=0;" parent="1" source="FyyPBsqEvOjFrn_GXzJg-239" edge="1">
          <mxGeometry width="50" height="50" relative="1" as="geometry">
            <mxPoint x="1700" y="820" as="sourcePoint" />
            <mxPoint x="1750" y="770" as="targetPoint" />
          </mxGeometry>
        </mxCell>
        <mxCell id="FyyPBsqEvOjFrn_GXzJg-247" value="" style="endArrow=none;html=1;rounded=0;exitX=0.35;exitY=-0.115;exitDx=0;exitDy=0;exitPerimeter=0;" parent="1" edge="1">
          <mxGeometry width="50" height="50" relative="1" as="geometry">
            <mxPoint x="1765" y="809" as="sourcePoint" />
            <mxPoint x="1760" y="780" as="targetPoint" />
          </mxGeometry>
        </mxCell>
        <mxCell id="FyyPBsqEvOjFrn_GXzJg-248" value="" style="endArrow=none;html=1;rounded=0;exitX=0.5;exitY=0;exitDx=0;exitDy=0;" parent="1" source="FyyPBsqEvOjFrn_GXzJg-245" edge="1">
          <mxGeometry width="50" height="50" relative="1" as="geometry">
            <mxPoint x="1690" y="720" as="sourcePoint" />
            <mxPoint x="1750" y="600" as="targetPoint" />
          </mxGeometry>
        </mxCell>
        <mxCell id="FyyPBsqEvOjFrn_GXzJg-249" value="1" style="text;html=1;align=center;verticalAlign=middle;resizable=0;points=[];autosize=1;strokeColor=none;fillColor=none;" parent="1" vertex="1">
          <mxGeometry x="1725" y="588" width="30" height="30" as="geometry" />
        </mxCell>
        <mxCell id="FyyPBsqEvOjFrn_GXzJg-250" value="1" style="text;html=1;align=center;verticalAlign=middle;resizable=0;points=[];autosize=1;strokeColor=none;fillColor=none;" parent="1" vertex="1">
          <mxGeometry x="1765" y="768" width="30" height="30" as="geometry" />
        </mxCell>
        <mxCell id="FyyPBsqEvOjFrn_GXzJg-251" value="&lt;font style=&quot;font-size: 18px;&quot;&gt;Hosts&lt;/font&gt;" style="ellipse;whiteSpace=wrap;html=1;" parent="1" vertex="1">
          <mxGeometry x="1900" y="850" width="75" height="30" as="geometry" />
        </mxCell>
        <mxCell id="FyyPBsqEvOjFrn_GXzJg-252" value="Transction" style="rounded=0;whiteSpace=wrap;html=1;" parent="1" vertex="1">
          <mxGeometry x="1835" y="-90" width="120" height="60" as="geometry" />
        </mxCell>
        <mxCell id="FyyPBsqEvOjFrn_GXzJg-253" value="Keeps" style="rhombus;whiteSpace=wrap;html=1;" parent="1" vertex="1">
          <mxGeometry x="1710" y="-12" width="80" height="80" as="geometry" />
        </mxCell>
        <mxCell id="FyyPBsqEvOjFrn_GXzJg-254" value="" style="endArrow=none;html=1;rounded=0;exitX=0.75;exitY=0;exitDx=0;exitDy=0;" parent="1" source="FyyPBsqEvOjFrn_GXzJg-153" edge="1">
          <mxGeometry width="50" height="50" relative="1" as="geometry">
            <mxPoint x="1710" y="110" as="sourcePoint" />
            <mxPoint x="1760" y="60" as="targetPoint" />
          </mxGeometry>
        </mxCell>
        <mxCell id="FyyPBsqEvOjFrn_GXzJg-255" value="" style="endArrow=none;html=1;rounded=0;" parent="1" edge="1">
          <mxGeometry width="50" height="50" relative="1" as="geometry">
            <mxPoint x="1790" y="20" as="sourcePoint" />
            <mxPoint x="1840" y="-30" as="targetPoint" />
          </mxGeometry>
        </mxCell>
        <mxCell id="FyyPBsqEvOjFrn_GXzJg-256" value="1" style="text;html=1;align=center;verticalAlign=middle;resizable=0;points=[];autosize=1;strokeColor=none;fillColor=none;" parent="1" vertex="1">
          <mxGeometry x="1755" y="198" width="30" height="30" as="geometry" />
        </mxCell>
        <mxCell id="FyyPBsqEvOjFrn_GXzJg-257" value="M" style="text;html=1;align=center;verticalAlign=middle;resizable=0;points=[];autosize=1;strokeColor=none;fillColor=none;" parent="1" vertex="1">
          <mxGeometry x="1805" y="-42" width="30" height="30" as="geometry" />
        </mxCell>
        <mxCell id="FyyPBsqEvOjFrn_GXzJg-258" value="" style="endArrow=none;html=1;rounded=0;" parent="1" edge="1">
          <mxGeometry width="50" height="50" relative="1" as="geometry">
            <mxPoint x="1800" y="30" as="sourcePoint" />
            <mxPoint x="1850" y="-20" as="targetPoint" />
          </mxGeometry>
        </mxCell>
        <mxCell id="FyyPBsqEvOjFrn_GXzJg-259" value="&lt;font style=&quot;font-size: 18px;&quot;&gt;ID&lt;/font&gt;" style="ellipse;whiteSpace=wrap;html=1;" parent="1" vertex="1">
          <mxGeometry x="1980" y="-180" width="90" height="48" as="geometry" />
        </mxCell>
        <mxCell id="FyyPBsqEvOjFrn_GXzJg-260" value="" style="endArrow=none;html=1;rounded=0;entryX=0.5;entryY=1;entryDx=0;entryDy=0;" parent="1" target="FyyPBsqEvOjFrn_GXzJg-259" edge="1">
          <mxGeometry width="50" height="50" relative="1" as="geometry">
            <mxPoint x="1960" y="-90" as="sourcePoint" />
            <mxPoint x="1860" y="-10" as="targetPoint" />
          </mxGeometry>
        </mxCell>
        <mxCell id="FyyPBsqEvOjFrn_GXzJg-261" value="&lt;font style=&quot;font-size: 18px;&quot;&gt;Date&lt;/font&gt;" style="ellipse;whiteSpace=wrap;html=1;" parent="1" vertex="1">
          <mxGeometry x="1870" y="-220" width="90" height="48" as="geometry" />
        </mxCell>
        <mxCell id="FyyPBsqEvOjFrn_GXzJg-262" value="&lt;font style=&quot;font-size: 18px;&quot;&gt;Amount&lt;/font&gt;" style="ellipse;whiteSpace=wrap;html=1;" parent="1" vertex="1">
          <mxGeometry x="1750" y="-190" width="90" height="48" as="geometry" />
        </mxCell>
        <mxCell id="FyyPBsqEvOjFrn_GXzJg-263" value="&lt;font style=&quot;font-size: 18px;&quot;&gt;Descrption&lt;/font&gt;" style="ellipse;whiteSpace=wrap;html=1;" parent="1" vertex="1">
          <mxGeometry x="2010" y="-100" width="90" height="40" as="geometry" />
        </mxCell>
        <mxCell id="FyyPBsqEvOjFrn_GXzJg-264" value="Driven" style="text;html=1;align=center;verticalAlign=middle;resizable=0;points=[];autosize=1;strokeColor=none;fillColor=none;" parent="1" vertex="1">
          <mxGeometry x="2050" y="639" width="60" height="30" as="geometry" />
        </mxCell>
        <mxCell id="FyyPBsqEvOjFrn_GXzJg-265" value="" style="endArrow=none;html=1;rounded=0;" parent="1" edge="1">
          <mxGeometry width="50" height="50" relative="1" as="geometry">
            <mxPoint x="1650" y="910" as="sourcePoint" />
            <mxPoint x="1700" y="860" as="targetPoint" />
          </mxGeometry>
        </mxCell>
        <mxCell id="FyyPBsqEvOjFrn_GXzJg-266" value="" style="endArrow=none;html=1;rounded=0;entryX=0.25;entryY=1;entryDx=0;entryDy=0;exitX=0.5;exitY=0;exitDx=0;exitDy=0;" parent="1" source="FyyPBsqEvOjFrn_GXzJg-242" target="FyyPBsqEvOjFrn_GXzJg-238" edge="1">
          <mxGeometry width="50" height="50" relative="1" as="geometry">
            <mxPoint x="1660" y="920" as="sourcePoint" />
            <mxPoint x="1710" y="870" as="targetPoint" />
          </mxGeometry>
        </mxCell>
        <mxCell id="FyyPBsqEvOjFrn_GXzJg-267" value="" style="endArrow=none;html=1;rounded=0;entryX=0.25;entryY=1;entryDx=0;entryDy=0;exitX=0.5;exitY=0;exitDx=0;exitDy=0;" parent="1" edge="1">
          <mxGeometry width="50" height="50" relative="1" as="geometry">
            <mxPoint x="1835" y="913" as="sourcePoint" />
            <mxPoint x="1820" y="855" as="targetPoint" />
          </mxGeometry>
        </mxCell>
        <mxCell id="FyyPBsqEvOjFrn_GXzJg-268" value="" style="endArrow=none;html=1;rounded=0;entryX=1;entryY=0.5;entryDx=0;entryDy=0;" parent="1" target="FyyPBsqEvOjFrn_GXzJg-238" edge="1">
          <mxGeometry width="50" height="50" relative="1" as="geometry">
            <mxPoint x="1890" y="850" as="sourcePoint" />
            <mxPoint x="1830" y="865" as="targetPoint" />
          </mxGeometry>
        </mxCell>
      </root>
    </mxGraphModel>
  </diagram>
</mxfile>
